<svg width="73" height="21" viewBox="0 0 73 21" fill="none" xmlns="http://www.w3.org/2000/svg">
<path d="M13.9459 3.78223C13.1841 3.69434 12.4322 3.63086 11.69 3.5918C10.9478 3.55273 10.191 3.5332 9.41949 3.5332C9.14606 3.5332 8.86774 3.5332 8.58453 3.5332C8.3111 3.52344 8.04254 3.49414 7.77887 3.44531C7.41754 3.38672 7.05621 3.35742 6.69489 3.35742C6.59723 3.35742 6.49957 3.35742 6.40192 3.35742C6.30426 3.35742 6.21149 3.36719 6.1236 3.38672C6.18219 3.79688 6.22614 4.15332 6.25543 4.45605C6.29449 4.74902 6.32379 5.03223 6.34332 5.30566C6.36285 5.56934 6.37262 5.85254 6.37262 6.15527C6.38239 6.44824 6.38727 6.80469 6.38727 7.22461C6.82672 7.19531 7.26129 7.1709 7.69098 7.15137C8.12067 7.12207 8.55524 7.10742 8.99469 7.10742C9.19 7.10742 9.38531 7.1123 9.58063 7.12207C9.77594 7.13184 9.97125 7.13672 10.1666 7.13672C10.606 7.13672 11.0357 7.11719 11.4556 7.07812C11.8755 7.03906 12.3052 6.99023 12.7447 6.93164C12.7642 7.21484 12.7789 7.50781 12.7886 7.81055C12.8082 8.10352 12.8179 8.40137 12.8179 8.7041C12.8179 9.0752 12.8033 9.45605 12.774 9.84668C12.7545 10.2275 12.7447 10.6035 12.7447 10.9746C12.2662 10.916 11.7925 10.8574 11.3238 10.7988C10.855 10.7402 10.3814 10.6719 9.90289 10.5938C9.5318 10.5449 9.17047 10.4619 8.81891 10.3447C8.46735 10.2275 8.10602 10.1104 7.73492 9.99316C7.67633 9.97363 7.59332 9.94434 7.4859 9.90527C7.37848 9.85645 7.26129 9.8125 7.13434 9.77344C7.01715 9.72461 6.90485 9.68555 6.79742 9.65625C6.69 9.61719 6.60699 9.59766 6.5484 9.59766C6.38239 9.57812 6.22125 9.56836 6.065 9.56836C5.90875 9.56836 5.74762 9.55859 5.5816 9.53906C5.66949 10.3984 5.72321 11.2578 5.74274 12.1172C5.76227 12.9766 5.79645 13.8359 5.84528 14.6953C6.30426 14.6465 6.75836 14.6123 7.20758 14.5928C7.66656 14.5635 8.12555 14.5488 8.58453 14.5488C8.86774 14.5488 9.14606 14.5635 9.41949 14.5928C9.69293 14.6221 9.97125 14.6367 10.2545 14.6367C10.4986 14.6367 10.7672 14.6318 11.0601 14.6221C11.3629 14.6123 11.6656 14.5928 11.9683 14.5635C12.2808 14.5342 12.5836 14.4902 12.8765 14.4316C13.1695 14.373 13.4283 14.2949 13.6529 14.1973C13.6724 14.6172 13.692 15.0469 13.7115 15.4863C13.731 15.9258 13.7408 16.3652 13.7408 16.8047V18.4453C13.0963 18.4258 12.4517 18.4111 11.8072 18.4014C11.1627 18.3916 10.5181 18.3867 9.8736 18.3867C9.51227 18.3867 9.13629 18.3867 8.74567 18.3867C8.35504 18.377 7.97906 18.3965 7.61774 18.4453C7.10992 18.5137 6.60211 18.5771 6.0943 18.6357C5.58649 18.6943 5.07379 18.7627 4.55621 18.8408C4.32184 18.8701 4.08258 18.9043 3.83844 18.9434C3.60406 18.9727 3.36481 18.9873 3.12067 18.9873C2.74957 18.9873 2.35895 19.0215 1.94879 19.0898C1.5484 19.1582 1.15778 19.2266 0.776917 19.2949C0.825745 19.2168 0.898987 19.0898 0.996643 18.9141C1.0943 18.7285 1.2066 18.5186 1.33356 18.2842C1.45074 18.0498 1.57281 17.8057 1.69977 17.5518C1.82672 17.2881 1.94391 17.0391 2.05133 16.8047C2.15875 16.5605 2.24664 16.3457 2.315 16.1602C2.39313 15.9648 2.43219 15.8184 2.43219 15.7207C2.47125 15.1543 2.4859 14.5879 2.47614 14.0215C2.47614 13.4551 2.47125 12.8936 2.46149 12.3369C2.45172 11.7705 2.44196 11.2041 2.43219 10.6377C2.43219 10.0713 2.45172 9.50488 2.49078 8.93848C2.52008 8.3623 2.56891 7.79102 2.63727 7.22461C2.71539 6.6582 2.75446 6.0918 2.75446 5.52539C2.75446 5.28125 2.74469 5.03711 2.72516 4.79297C2.70563 4.53906 2.6568 4.2998 2.57867 4.0752C2.52985 3.89941 2.46637 3.69922 2.38824 3.47461C2.31012 3.25 2.25641 3.04004 2.22711 2.84473C2.14899 2.39551 2.09528 1.93652 2.06598 1.46777C2.03668 0.999023 1.99762 0.540039 1.94879 0.0908203C2.37848 0.139648 2.7984 0.198242 3.20856 0.266602C3.62848 0.325195 4.0484 0.408203 4.46832 0.515625C4.92731 0.632812 5.41071 0.696289 5.91852 0.706055C6.42633 0.71582 6.91461 0.720703 7.38336 0.720703C8.44781 0.720703 9.50739 0.676758 10.5621 0.588867C11.6265 0.491211 12.6861 0.393555 13.7408 0.295898L13.9459 3.78223ZM26.9615 4.0459C26.8736 4.48535 26.7857 4.92969 26.6978 5.37891C26.6099 5.81836 26.5269 6.25781 26.4488 6.69727C26.3316 7.40039 26.2534 8.09863 26.2144 8.79199C26.1851 9.48535 26.1216 10.1836 26.024 10.8867C25.9165 11.7949 25.7896 12.6982 25.6431 13.5967C25.5064 14.4951 25.438 15.4033 25.438 16.3213C25.438 16.9365 25.4673 17.5566 25.5259 18.1816C25.5845 18.8066 25.6236 19.4268 25.6431 20.042C24.9204 19.9932 24.2027 19.9541 23.4898 19.9248C22.7867 19.9053 22.0738 19.8613 21.3511 19.793C21.3999 19.2852 21.4439 18.7773 21.4829 18.2695C21.5318 17.7617 21.5562 17.2539 21.5562 16.7461C21.5562 16.1211 21.4927 15.5596 21.3658 15.0615C21.2486 14.5537 21.0728 14.0752 20.8384 13.626C20.6138 13.1768 20.3404 12.7422 20.0181 12.3223C19.7056 11.8926 19.3589 11.4434 18.9781 10.9746C18.9585 11.502 18.9488 12.0342 18.9488 12.5713C18.9585 13.0986 18.9195 13.6162 18.8316 14.124C18.7242 14.7686 18.6216 15.4033 18.524 16.0283C18.4263 16.6533 18.3775 17.293 18.3775 17.9473C18.3775 18.2012 18.3872 18.4502 18.4068 18.6943C18.4361 18.9287 18.4751 19.168 18.524 19.4121C18.231 19.4121 17.9283 19.417 17.6158 19.4268C17.313 19.4365 17.0103 19.4414 16.7076 19.4414C16.4243 19.4414 16.1363 19.417 15.8433 19.3682C15.5601 19.3096 15.2769 19.2412 14.9937 19.1631C15.1695 17.6885 15.3355 16.2188 15.4917 14.7539C15.6577 13.2891 15.7408 11.7998 15.7408 10.2861C15.7408 9.72949 15.7066 9.16797 15.6382 8.60156C15.5699 8.03516 15.4868 7.46875 15.3892 6.90234C15.2915 6.32617 15.1841 5.75488 15.0669 5.18848C14.9595 4.6123 14.8618 4.05078 14.774 3.50391C15.2329 3.57227 15.6675 3.60645 16.0777 3.60645C16.4976 3.60645 16.937 3.60645 17.396 3.60645C17.7378 3.60645 18.0747 3.61621 18.4068 3.63574C18.7486 3.65527 19.0904 3.6748 19.4322 3.69434C19.5396 4.03613 19.6324 4.43652 19.7105 4.89551C19.7886 5.35449 19.8667 5.81836 19.9449 6.28711C20.0327 6.74609 20.1304 7.18555 20.2378 7.60547C20.3452 8.02539 20.4771 8.37207 20.6333 8.64551C20.8775 9.08496 21.1411 9.50488 21.4243 9.90527C21.7173 10.2959 21.981 10.7061 22.2154 11.1357C22.4009 11.4678 22.5816 11.7998 22.7574 12.1318C22.9331 12.4541 23.104 12.7812 23.2701 13.1133C23.3286 12.2832 23.3824 11.4531 23.4312 10.623C23.48 9.79297 23.5044 8.96289 23.5044 8.13281C23.5044 7.3418 23.4117 6.60449 23.2261 5.9209C23.0406 5.2373 22.8062 4.53418 22.523 3.81152C22.8941 3.82129 23.2603 3.84082 23.6216 3.87012C23.9927 3.88965 24.3638 3.91406 24.7349 3.94336C25.106 3.97266 25.4771 4.00195 25.8482 4.03125C26.2193 4.05078 26.5904 4.05566 26.9615 4.0459ZM40.6216 4.26562C40.5923 4.60742 40.5581 4.94922 40.5191 5.29102C40.4898 5.62305 40.4751 5.95996 40.4751 6.30176C40.4751 6.5752 40.4898 6.84863 40.5191 7.12207C40.5484 7.38574 40.563 7.64941 40.563 7.91309H40.0503C39.5523 7.93262 39.0689 7.91309 38.6001 7.85449C38.1314 7.7959 37.648 7.7666 37.1499 7.7666C36.9644 7.7666 36.7739 7.75684 36.5786 7.7373C36.3931 7.70801 36.2124 7.67871 36.0366 7.64941C36.0952 7.94238 36.1392 8.27441 36.1685 8.64551C36.2075 9.0166 36.2319 9.39746 36.2417 9.78809C36.2612 10.1787 36.271 10.5693 36.271 10.96C36.271 11.3408 36.271 11.6875 36.271 12C36.271 12.498 36.3101 12.9814 36.3882 13.4502C36.4761 13.9189 36.52 14.3975 36.52 14.8857C36.52 15.1104 36.5152 15.335 36.5054 15.5596C36.4956 15.7744 36.4907 15.9893 36.4907 16.2041C36.4907 16.8975 36.5444 17.5859 36.6519 18.2695C36.7691 18.9434 36.9253 19.6025 37.1206 20.2471C36.8374 20.2471 36.5542 20.2422 36.271 20.2324C35.9878 20.2227 35.7095 20.2178 35.4361 20.2178C34.8013 20.2178 34.1714 20.252 33.5464 20.3203C32.9214 20.3887 32.3013 20.4473 31.6861 20.4961L31.6568 20.0127C31.647 19.6025 31.6665 19.2021 31.7153 18.8115C31.7739 18.4111 31.8374 18.0156 31.9058 17.625C31.9839 17.2246 32.0571 16.8291 32.1255 16.4385C32.1939 16.0381 32.2378 15.6377 32.2573 15.2373C32.3062 14.6025 32.3159 13.9775 32.2866 13.3623C32.2671 12.7471 32.2573 12.1318 32.2573 11.5166C32.2573 11.2041 32.272 10.8965 32.3013 10.5938C32.3306 10.291 32.3648 9.99316 32.4038 9.7002C32.4527 9.40723 32.4966 9.10938 32.5357 8.80664C32.5845 8.50391 32.6187 8.19629 32.6382 7.88379H32.4917C32.1011 7.85449 31.7105 7.87891 31.3198 7.95703C30.939 8.03516 30.563 8.11328 30.1919 8.19141C30.104 8.25977 29.9331 8.32324 29.6792 8.38184C29.4351 8.44043 29.1714 8.49414 28.8882 8.54297C28.605 8.58203 28.3316 8.61621 28.0679 8.64551C27.8042 8.6748 27.6089 8.69434 27.4819 8.7041C27.5601 8.3916 27.6333 8.0791 27.7017 7.7666C27.7798 7.44434 27.8189 7.11719 27.8189 6.78516C27.8189 6.20898 27.7993 5.63281 27.7603 5.05664C27.7212 4.48047 27.7017 3.9043 27.7017 3.32812C28.1216 3.46484 28.5366 3.60156 28.9468 3.73828C29.3667 3.875 29.7866 4.00195 30.2066 4.11914C30.6362 4.22656 31.0659 4.31934 31.4956 4.39746C31.9253 4.46582 32.3599 4.5 32.7993 4.5H37.897H39.5816C39.728 4.5 39.9038 4.47559 40.1089 4.42676C40.314 4.36816 40.4849 4.31445 40.6216 4.26562ZM46.7378 3.63574C46.6792 4.19238 46.6255 4.74414 46.5767 5.29102C46.5278 5.82812 46.4692 6.375 46.4009 6.93164C45.8442 6.77539 45.2876 6.61914 44.731 6.46289C44.1743 6.29687 43.5933 6.21387 42.9878 6.21387C42.8218 6.21387 42.6509 6.22363 42.4751 6.24316C42.2993 6.2627 42.1187 6.28223 41.9331 6.30176L42.0796 3.75293C42.6851 3.7041 43.3003 3.6748 43.9253 3.66504C44.5601 3.64551 45.1851 3.63574 45.8003 3.63574H46.7378ZM46.3423 8.04492C46.2153 8.60156 46.1177 9.1582 46.0493 9.71484C45.981 10.2617 45.9224 10.8086 45.8735 11.3555C45.8247 11.9023 45.7759 12.4541 45.7271 13.0107C45.688 13.5576 45.6245 14.1094 45.5366 14.666C45.4585 15.1348 45.4048 15.5938 45.3755 16.043C45.3462 16.4824 45.3315 16.9463 45.3315 17.4346C45.3315 17.8057 45.356 18.1816 45.4048 18.5625C45.4634 18.9336 45.5171 19.3047 45.5659 19.6758C44.8921 19.5586 44.2329 19.5 43.5884 19.5C42.9438 19.5 42.2847 19.5098 41.6108 19.5293C41.6987 18.4648 41.7915 17.4004 41.8892 16.3359C41.9966 15.2715 42.0503 14.207 42.0503 13.1426C42.0503 12.7715 42.0308 12.4053 41.9917 12.0439C41.9624 11.6729 41.9282 11.3066 41.8892 10.9453C41.8501 10.584 41.8159 10.2227 41.7866 9.86133C41.7573 9.49023 41.7476 9.12402 41.7573 8.7627L41.7866 8.30859C42.2847 8.2207 42.7534 8.17676 43.1929 8.17676C43.6421 8.16699 44.1157 8.16211 44.6138 8.16211C44.9067 8.16211 45.1948 8.15234 45.478 8.13281C45.771 8.10352 46.0591 8.07422 46.3423 8.04492ZM60.4126 4.26562C60.3833 4.60742 60.3491 4.94922 60.31 5.29102C60.2807 5.62305 60.2661 5.95996 60.2661 6.30176C60.2661 6.5752 60.2807 6.84863 60.31 7.12207C60.3393 7.38574 60.354 7.64941 60.354 7.91309H59.8413C59.3432 7.93262 58.8598 7.91309 58.3911 7.85449C57.9223 7.7959 57.4389 7.7666 56.9409 7.7666C56.7553 7.7666 56.5649 7.75684 56.3696 7.7373C56.1841 7.70801 56.0034 7.67871 55.8276 7.64941C55.8862 7.94238 55.9301 8.27441 55.9594 8.64551C55.9985 9.0166 56.0229 9.39746 56.0327 9.78809C56.0522 10.1787 56.062 10.5693 56.062 10.96C56.062 11.3408 56.062 11.6875 56.062 12C56.062 12.498 56.101 12.9814 56.1792 13.4502C56.2671 13.9189 56.311 14.3975 56.311 14.8857C56.311 15.1104 56.3061 15.335 56.2964 15.5596C56.2866 15.7744 56.2817 15.9893 56.2817 16.2041C56.2817 16.8975 56.3354 17.5859 56.4428 18.2695C56.56 18.9434 56.7163 19.6025 56.9116 20.2471C56.6284 20.2471 56.3452 20.2422 56.062 20.2324C55.7788 20.2227 55.5005 20.2178 55.227 20.2178C54.5923 20.2178 53.9624 20.252 53.3374 20.3203C52.7124 20.3887 52.0923 20.4473 51.477 20.4961L51.4477 20.0127C51.438 19.6025 51.4575 19.2021 51.5063 18.8115C51.5649 18.4111 51.6284 18.0156 51.6967 17.625C51.7749 17.2246 51.8481 16.8291 51.9165 16.4385C51.9848 16.0381 52.0288 15.6377 52.0483 15.2373C52.0971 14.6025 52.1069 13.9775 52.0776 13.3623C52.0581 12.7471 52.0483 12.1318 52.0483 11.5166C52.0483 11.2041 52.063 10.8965 52.0923 10.5938C52.1216 10.291 52.1557 9.99316 52.1948 9.7002C52.2436 9.40723 52.2876 9.10938 52.3266 8.80664C52.3755 8.50391 52.4096 8.19629 52.4292 7.88379H52.2827C51.8921 7.85449 51.5014 7.87891 51.1108 7.95703C50.7299 8.03516 50.354 8.11328 49.9829 8.19141C49.895 8.25977 49.7241 8.32324 49.4702 8.38184C49.226 8.44043 48.9624 8.49414 48.6792 8.54297C48.396 8.58203 48.1225 8.61621 47.8589 8.64551C47.5952 8.6748 47.3999 8.69434 47.2729 8.7041C47.351 8.3916 47.4243 8.0791 47.4926 7.7666C47.5708 7.44434 47.6098 7.11719 47.6098 6.78516C47.6098 6.20898 47.5903 5.63281 47.5512 5.05664C47.5122 4.48047 47.4926 3.9043 47.4926 3.32812C47.9126 3.46484 48.3276 3.60156 48.7378 3.73828C49.1577 3.875 49.5776 4.00195 49.9975 4.11914C50.4272 4.22656 50.8569 4.31934 51.2866 4.39746C51.7163 4.46582 52.1508 4.5 52.5903 4.5H57.688H59.3725C59.519 4.5 59.6948 4.47559 59.8999 4.42676C60.1049 4.36816 60.2758 4.31445 60.4126 4.26562ZM72.3149 4.0752C72.1684 4.3877 72.0219 4.70508 71.8754 5.02734C71.7387 5.33984 71.5873 5.65234 71.4213 5.96484C71.3334 6.14062 71.2211 6.32617 71.0844 6.52148C70.9477 6.7168 70.811 6.91699 70.6743 7.12207C70.5375 7.31738 70.4106 7.5127 70.2934 7.70801C70.1762 7.90332 70.0932 8.08398 70.0444 8.25C69.937 8.61133 69.7709 9.03125 69.5463 9.50977C69.3315 9.97852 69.0922 10.4619 68.8286 10.96C68.5746 11.4482 68.311 11.9219 68.0375 12.3809C67.7739 12.8398 67.5395 13.2451 67.3344 13.5967C67.2758 14.2119 67.2319 14.8223 67.2026 15.4277C67.1733 16.0234 67.1586 16.6387 67.1586 17.2734C67.1586 17.6836 67.1782 18.0889 67.2172 18.4893C67.2661 18.8896 67.3149 19.2949 67.3637 19.7051C66.9536 19.7246 66.5873 19.7393 66.2651 19.749C65.9526 19.7686 65.645 19.7832 65.3422 19.793C65.0395 19.8027 64.727 19.8125 64.4047 19.8223C64.0922 19.832 63.7309 19.8467 63.3207 19.8662C63.3793 19.4365 63.433 19.0166 63.4819 18.6064C63.5307 18.1865 63.5551 17.7666 63.5551 17.3467C63.5551 16.9463 63.5746 16.5508 63.6137 16.1602C63.6625 15.7598 63.7114 15.3643 63.7602 14.9736C63.8188 14.583 63.8676 14.1924 63.9067 13.8018C63.9555 13.4014 63.9799 13.001 63.9799 12.6006C63.9799 12.4541 63.9409 12.2539 63.8627 12C63.7944 11.7461 63.7065 11.4873 63.5991 11.2236C63.4916 10.9502 63.3793 10.6963 63.2621 10.4619C63.145 10.2178 63.0424 10.0322 62.9545 9.90527C62.6518 9.42676 62.3979 8.92383 62.1928 8.39648C61.9877 7.86914 61.8022 7.33203 61.6362 6.78516C61.4799 6.23828 61.3383 5.69141 61.2114 5.14453C61.0844 4.58789 60.9477 4.04102 60.8012 3.50391C61.0844 3.45508 61.3725 3.41113 61.6655 3.37207C61.9682 3.32324 62.2612 3.29883 62.5444 3.29883C62.8569 3.29883 63.1157 3.30371 63.3207 3.31348C63.5258 3.31348 63.7211 3.31836 63.9067 3.32812C64.102 3.33789 64.3022 3.34766 64.5073 3.35742C64.7123 3.36719 64.9662 3.37695 65.269 3.38672C65.1323 4.12891 65.0297 4.87109 64.9614 5.61328C64.9028 6.35547 64.8735 7.10254 64.8735 7.85449C64.8735 8.04004 64.9028 8.22559 64.9614 8.41113C65.02 8.58691 65.0883 8.7627 65.1664 8.93848C65.2446 9.10449 65.3227 9.27539 65.4008 9.45117C65.4887 9.61719 65.5522 9.78809 65.5912 9.96387C65.6401 10.1104 65.6791 10.2666 65.7084 10.4326C65.7475 10.5889 65.7817 10.75 65.811 10.916C66.3188 9.76367 66.7485 8.58203 67.1 7.37109C67.4614 6.16016 67.8129 4.94434 68.1547 3.72363C68.3891 3.75293 68.6235 3.78223 68.8578 3.81152C69.102 3.83105 69.3461 3.84082 69.5903 3.84082C69.8149 3.84082 70.0444 3.83105 70.2787 3.81152C70.5131 3.79199 70.7524 3.78223 70.9965 3.78223C71.2211 3.78223 71.4457 3.81641 71.6703 3.88477C71.895 3.95313 72.1098 4.0166 72.3149 4.0752Z" fill="white"/>
</svg>
