<svg width="142" height="23" viewBox="0 0 142 23" fill="none" xmlns="http://www.w3.org/2000/svg">
<path d="M5.55921 20.1045C5.22718 20.0264 4.89027 19.958 4.54847 19.8994C4.21644 19.8408 3.88441 19.8115 3.55238 19.8115C3.30824 19.8115 3.06409 19.8262 2.81995 19.8555C2.57581 19.8848 2.33167 19.8994 2.08753 19.8994C1.92152 19.8994 1.74085 19.8848 1.54554 19.8555C1.35999 19.8164 1.19886 19.7432 1.06214 19.6357C1.14027 18.835 1.19886 18.0391 1.23792 17.248C1.28675 16.457 1.31116 15.6611 1.31116 14.8604C1.31116 14.2744 1.3307 13.6885 1.36976 13.1025C1.41859 12.5166 1.46741 11.9307 1.51624 11.3447C1.53577 11.2959 1.54554 11.252 1.54554 11.2129C1.54554 11.1738 1.54554 11.1396 1.54554 11.1104C1.54554 10.6611 1.51624 10.2168 1.45765 9.77734C1.39906 9.32812 1.34046 8.88379 1.28187 8.44434C1.26234 8.25879 1.23792 8.08301 1.20863 7.91699C1.18909 7.75098 1.17933 7.58496 1.17933 7.41895C1.17933 6.72559 1.15003 6.03711 1.09144 5.35352C1.03284 4.66992 1.00355 3.97656 1.00355 3.27344C1.00355 2.85352 0.979134 2.43359 0.930305 2.01367C0.881477 1.58398 0.827766 1.1543 0.769173 0.724609C1.22816 0.783203 1.6432 0.832031 2.01429 0.871094C2.38538 0.910156 2.74671 0.944336 3.09827 0.973633C3.44984 0.993164 3.80628 1.00781 4.16761 1.01758C4.5387 1.02734 4.94398 1.04199 5.38343 1.06152C5.26624 2.2334 5.14906 3.38574 5.03187 4.51855C4.92445 5.6416 4.87074 6.79883 4.87074 7.99023C4.87074 8.26367 4.87074 8.54688 4.87074 8.83984C4.8805 9.12305 4.9098 9.40137 4.95863 9.6748C5.03675 10.0166 5.09046 10.4121 5.11976 10.8613C5.15882 11.3105 5.18324 11.7744 5.193 12.2529C5.20277 12.7217 5.20277 13.1855 5.193 13.6445C5.193 14.1035 5.19788 14.5186 5.20765 14.8896C5.22718 15.7979 5.26136 16.6719 5.31019 17.5117C5.35902 18.3516 5.44202 19.2158 5.55921 20.1045ZM18.8824 5.0459C18.7945 5.48535 18.7066 5.92969 18.6188 6.37891C18.5309 6.81836 18.4479 7.25781 18.3697 7.69727C18.2525 8.40039 18.1744 9.09863 18.1354 9.79199C18.1061 10.4854 18.0426 11.1836 17.9449 11.8867C17.8375 12.7949 17.7106 13.6982 17.5641 14.5967C17.4274 15.4951 17.359 16.4033 17.359 17.3213C17.359 17.9365 17.3883 18.5566 17.4469 19.1816C17.5055 19.8066 17.5445 20.4268 17.5641 21.042C16.8414 20.9932 16.1236 20.9541 15.4108 20.9248C14.7076 20.9053 13.9947 20.8613 13.2721 20.793C13.3209 20.2852 13.3649 19.7773 13.4039 19.2695C13.4527 18.7617 13.4772 18.2539 13.4772 17.7461C13.4772 17.1211 13.4137 16.5596 13.2867 16.0615C13.1695 15.5537 12.9938 15.0752 12.7594 14.626C12.5348 14.1768 12.2613 13.7422 11.9391 13.3223C11.6266 12.8926 11.2799 12.4434 10.899 11.9746C10.8795 12.502 10.8697 13.0342 10.8697 13.5713C10.8795 14.0986 10.8404 14.6162 10.7525 15.124C10.6451 15.7686 10.5426 16.4033 10.4449 17.0283C10.3473 17.6533 10.2984 18.293 10.2984 18.9473C10.2984 19.2012 10.3082 19.4502 10.3277 19.6943C10.357 19.9287 10.3961 20.168 10.4449 20.4121C10.152 20.4121 9.84923 20.417 9.53673 20.4268C9.23399 20.4365 8.93126 20.4414 8.62852 20.4414C8.34532 20.4414 8.05724 20.417 7.76427 20.3682C7.48106 20.3096 7.19786 20.2412 6.91466 20.1631C7.09044 18.6885 7.25645 17.2188 7.4127 15.7539C7.57872 14.2891 7.66173 12.7998 7.66173 11.2861C7.66173 10.7295 7.62755 10.168 7.55919 9.60156C7.49083 9.03516 7.40782 8.46875 7.31017 7.90234C7.21251 7.32617 7.10509 6.75488 6.9879 6.18848C6.88048 5.6123 6.78282 5.05078 6.69493 4.50391C7.15392 4.57227 7.58849 4.60645 7.99864 4.60645C8.41856 4.60645 8.85802 4.60645 9.317 4.60645C9.6588 4.60645 9.99571 4.61621 10.3277 4.63574C10.6695 4.65527 11.0113 4.6748 11.3531 4.69434C11.4606 5.03613 11.5533 5.43652 11.6315 5.89551C11.7096 6.35449 11.7877 6.81836 11.8658 7.28711C11.9537 7.74609 12.0514 8.18555 12.1588 8.60547C12.2662 9.02539 12.3981 9.37207 12.5543 9.64551C12.7984 10.085 13.0621 10.5049 13.3453 10.9053C13.6383 11.2959 13.902 11.7061 14.1363 12.1357C14.3219 12.4678 14.5025 12.7998 14.6783 13.1318C14.8541 13.4541 15.025 13.7812 15.191 14.1133C15.2496 13.2832 15.3033 12.4531 15.3522 11.623C15.401 10.793 15.4254 9.96289 15.4254 9.13281C15.4254 8.3418 15.3326 7.60449 15.1471 6.9209C14.9615 6.2373 14.7272 5.53418 14.444 4.81152C14.815 4.82129 15.1813 4.84082 15.5426 4.87012C15.9137 4.88965 16.2848 4.91406 16.6559 4.94336C17.027 4.97266 17.3981 5.00195 17.7691 5.03125C18.1402 5.05078 18.5113 5.05566 18.8824 5.0459ZM31.7662 4.18164C31.5611 4.70898 31.3658 5.25098 31.1803 5.80762C31.0045 6.36426 30.8238 6.9209 30.6383 7.47754C30.4527 8.02441 30.2623 8.57129 30.067 9.11816C29.8814 9.65527 29.6764 10.1777 29.4517 10.6855C29.315 10.9883 29.1588 11.291 28.983 11.5938C28.8072 11.8867 28.6461 12.1748 28.4996 12.458C28.3043 12.8096 28.109 13.2246 27.9137 13.7031C27.7281 14.1719 27.5377 14.6602 27.3424 15.168C27.1568 15.666 26.9664 16.1543 26.7711 16.6328C26.5855 17.1016 26.4 17.5117 26.2144 17.8633C26.0094 18.2539 25.8238 18.625 25.6578 18.9766C25.4918 19.3184 25.3355 19.6602 25.189 20.002C25.0523 20.3438 24.9303 20.6953 24.8228 21.0566C24.7154 21.4277 24.6178 21.833 24.5299 22.2725C24.3053 21.1494 24.0123 19.9873 23.651 18.7861C23.2896 17.5752 22.9137 16.3643 22.523 15.1533C22.1422 13.9326 21.7711 12.7266 21.4098 11.5352C21.0484 10.3438 20.7603 9.19141 20.5455 8.07812C20.4088 7.38477 20.189 6.70605 19.8863 6.04199C19.5836 5.37793 19.276 4.72852 18.9635 4.09375C19.2369 4.13281 19.5103 4.18652 19.7838 4.25488C20.067 4.32324 20.3453 4.3916 20.6187 4.45996C20.9019 4.52832 21.1851 4.58691 21.4683 4.63574C21.7515 4.6748 22.0348 4.69434 22.318 4.69434C22.7867 4.69434 23.2506 4.68945 23.7096 4.67969C24.1685 4.66992 24.6324 4.65527 25.1012 4.63574C24.9644 5.12402 24.8521 5.62695 24.7642 6.14453C24.6861 6.65234 24.6226 7.16504 24.5738 7.68262C24.525 8.2002 24.4859 8.72266 24.4566 9.25C24.4273 9.76758 24.4029 10.2754 24.3834 10.7734C24.608 11.3496 24.7789 11.9551 24.8961 12.5898C25.0133 13.2148 25.1012 13.8301 25.1598 14.4355C25.2769 14.1328 25.3697 13.8301 25.4381 13.5273C25.5162 13.2246 25.5894 12.9219 25.6578 12.6191C25.7359 12.3164 25.8238 12.0234 25.9215 11.7402C26.0289 11.4473 26.1754 11.1689 26.3609 10.9053C26.4098 10.5537 26.4928 10.207 26.6099 9.86523C26.7271 9.51367 26.8443 9.16211 26.9615 8.81055C27.0787 8.45898 27.1812 8.10742 27.2691 7.75586C27.3668 7.4043 27.4156 7.05273 27.4156 6.70117C27.4156 6.28125 27.4058 5.86133 27.3863 5.44141C27.3668 5.02148 27.357 4.60156 27.357 4.18164C27.5719 4.23047 27.7818 4.26953 27.9869 4.29883C28.2017 4.31836 28.4215 4.32812 28.6461 4.32812C28.9781 4.32812 29.3053 4.29395 29.6275 4.22559C29.9596 4.15723 30.2916 4.12305 30.6236 4.12305C30.8189 4.12305 31.0094 4.12793 31.1949 4.1377C31.3805 4.14746 31.5709 4.16211 31.7662 4.18164ZM42.6431 7.96094C42.2916 7.93164 41.9693 7.90234 41.6763 7.87305C41.3834 7.83398 41.0953 7.7998 40.8121 7.77051C40.5386 7.73145 40.2554 7.70215 39.9625 7.68262C39.6793 7.66309 39.3619 7.65332 39.0103 7.65332C38.5416 7.65332 38.0826 7.68262 37.6334 7.74121C37.1939 7.79004 36.7447 7.81445 36.2857 7.81445C36.1197 7.81445 35.9537 7.80469 35.7877 7.78516C35.6314 7.75586 35.4703 7.72656 35.3043 7.69727C35.3824 8.14648 35.4312 8.58594 35.4507 9.01562C35.4703 9.43555 35.48 9.875 35.48 10.334C35.48 10.5098 35.4849 10.6953 35.4947 10.8906C35.5045 11.0762 35.5191 11.2617 35.5386 11.4473C36.1246 11.3594 36.6763 11.291 37.1939 11.2422C37.7115 11.1934 38.2193 11.1494 38.7173 11.1104C39.2252 11.0615 39.7379 11.0127 40.2554 10.9639C40.773 10.9053 41.3199 10.832 41.8961 10.7441L42.0425 13.9961C41.7984 13.9863 41.5738 13.9814 41.3687 13.9814C41.1636 13.9717 40.9634 13.957 40.7681 13.9375C40.5728 13.918 40.3726 13.8887 40.1675 13.8496C39.9722 13.8105 39.7476 13.7568 39.4937 13.6885C39.2496 13.6201 38.9761 13.5664 38.6734 13.5273C38.3804 13.4883 38.0777 13.459 37.7652 13.4395C37.4625 13.4199 37.1597 13.4053 36.857 13.3955C36.5543 13.3857 36.2759 13.376 36.022 13.3662L35.8609 17.2334H37.0035C37.482 17.2334 37.9263 17.2188 38.3365 17.1895C38.7466 17.1602 39.1519 17.1309 39.5523 17.1016C39.9527 17.0625 40.358 17.0283 40.7681 16.999C41.1783 16.9697 41.6226 16.9551 42.1011 16.9551L42.2037 20.2656C41.8912 20.2461 41.6031 20.2314 41.3394 20.2217C41.0855 20.2021 40.8365 20.1875 40.5923 20.1777C40.3482 20.168 40.0943 20.1582 39.8306 20.1484C39.5767 20.1387 39.2935 20.1338 38.981 20.1338C38.6099 20.1338 38.2144 20.1387 37.7945 20.1484C37.3843 20.1484 36.9937 20.1875 36.6226 20.2656C36.0953 20.3828 35.5386 20.4463 34.9527 20.4561C34.3668 20.4658 33.8101 20.4707 33.2828 20.4707C32.98 20.4707 32.6871 20.4658 32.4039 20.4561C32.1207 20.4463 31.8375 20.4414 31.5543 20.4414C31.6226 20.2656 31.7154 20.0264 31.8326 19.7236C31.9498 19.4111 32.067 19.084 32.1841 18.7422C32.3013 18.4004 32.4039 18.0684 32.4918 17.7461C32.5797 17.4238 32.6236 17.1699 32.6236 16.9844C32.6236 16.3008 32.6041 15.6221 32.565 14.9482C32.5259 14.2646 32.482 13.5859 32.4332 12.9121C32.3843 12.2285 32.3404 11.5498 32.3013 10.876C32.2623 10.1924 32.2427 9.50879 32.2427 8.8252C32.2427 8.19043 32.2476 7.56055 32.2574 6.93555C32.2672 6.30078 32.2818 5.66113 32.3013 5.0166C32.5552 5.11426 32.814 5.19727 33.0777 5.26562C33.3414 5.32422 33.6099 5.35352 33.8834 5.35352H34.1031C34.7476 5.24609 35.3873 5.14844 36.022 5.06055C36.6666 4.97266 37.3062 4.92871 37.941 4.92871C38.3414 4.92871 38.732 4.91406 39.1129 4.88477C39.4937 4.8457 39.8697 4.80176 40.2408 4.75293C40.6216 4.69434 40.9976 4.63574 41.3687 4.57715C41.7496 4.50879 42.1353 4.44531 42.5259 4.38672C42.5064 4.60156 42.4918 4.81641 42.482 5.03125C42.4722 5.23633 42.4673 5.44141 42.4673 5.64648C42.4673 6.01758 42.4869 6.40332 42.5259 6.80371C42.5748 7.2041 42.6138 7.58984 42.6431 7.96094ZM55.439 5.9834C55.3218 6.65723 55.1949 7.29199 55.0581 7.8877C54.9214 8.4834 54.7408 9.09863 54.5161 9.7334C54.0572 9.61621 53.6568 9.48926 53.315 9.35254C52.9829 9.21582 52.6704 9.08398 52.3775 8.95703C52.0943 8.82031 51.8159 8.69336 51.5425 8.57617C51.2788 8.44922 50.981 8.33691 50.649 8.23926C50.3267 8.1416 49.9605 8.06836 49.5503 8.01953C49.1402 7.96094 48.6519 7.93164 48.0855 7.93164C47.9097 7.93164 47.7681 7.94141 47.6607 7.96094C47.563 7.98047 47.4898 8.01953 47.4409 8.07812C47.3921 8.12695 47.3628 8.20508 47.3531 8.3125C47.3433 8.41016 47.3384 8.54199 47.3384 8.70801C47.3384 8.77637 47.3384 8.86914 47.3384 8.98633C47.3384 9.10352 47.3433 9.22559 47.3531 9.35254C47.3628 9.46973 47.3775 9.58203 47.397 9.68945C47.4165 9.79688 47.4458 9.87988 47.4849 9.93848C47.5142 9.9873 47.5972 10.041 47.7339 10.0996C47.8804 10.1582 48.0367 10.2168 48.2027 10.2754C48.3687 10.3242 48.5298 10.373 48.6861 10.4219C48.8423 10.4707 48.9546 10.5098 49.023 10.5391C49.4136 10.6953 49.7993 10.8271 50.1802 10.9346C50.5611 11.042 50.9566 11.1396 51.3667 11.2275C51.5523 11.2666 51.772 11.3057 52.0259 11.3447C52.2896 11.3838 52.563 11.4277 52.8462 11.4766C53.1294 11.5254 53.4077 11.5889 53.6812 11.667C53.9644 11.7354 54.2183 11.833 54.4429 11.96C54.6773 12.0771 54.8677 12.2236 55.0142 12.3994C55.1704 12.5654 55.2632 12.7754 55.2925 13.0293C55.3413 13.5176 55.3706 14.0547 55.3804 14.6406C55.3999 15.2266 55.4097 15.7588 55.4097 16.2373C55.4097 16.7256 55.3511 17.2432 55.2339 17.79C55.1265 18.3369 54.9458 18.8447 54.6919 19.3135C54.438 19.7725 54.106 20.1582 53.6958 20.4707C53.2857 20.7734 52.7779 20.9248 52.1724 20.9248C51.8013 20.9248 51.4351 20.876 51.0738 20.7783C50.7124 20.6807 50.3462 20.5879 49.9751 20.5C49.3599 20.334 48.7447 20.1924 48.1294 20.0752C47.524 19.9482 46.9136 19.8115 46.2984 19.665C45.898 19.5576 45.5025 19.4502 45.1118 19.3428C44.731 19.2354 44.3355 19.1426 43.9253 19.0645C44.1792 18.4883 44.355 17.8975 44.4527 17.292C44.5503 16.6768 44.6724 16.0664 44.8189 15.4609C45.063 15.7051 45.3316 15.9102 45.6245 16.0762C45.9175 16.2422 46.2202 16.3887 46.5327 16.5156C46.855 16.623 47.1382 16.7354 47.3824 16.8525C47.6265 16.9697 47.8706 17.0771 48.1148 17.1748C48.3687 17.2627 48.6421 17.3408 48.9351 17.4092C49.2378 17.4678 49.6089 17.4971 50.0484 17.4971C50.3316 17.4971 50.5708 17.4482 50.7661 17.3506C50.9615 17.2529 51.1177 17.126 51.2349 16.9697C51.3521 16.8135 51.4351 16.6328 51.4839 16.4277C51.5425 16.2129 51.5718 15.998 51.5718 15.7832C51.5718 15.6953 51.5669 15.5586 51.5572 15.373C51.5474 15.1777 51.5132 15.0361 51.4546 14.9482C51.4351 14.9092 51.3521 14.8457 51.2056 14.7578C51.0591 14.6602 50.898 14.5625 50.7222 14.4648C50.5464 14.3574 50.3755 14.2598 50.2095 14.1719C50.0533 14.084 49.9458 14.0352 49.8872 14.0254C49.7115 13.9766 49.5161 13.9619 49.3013 13.9814C49.0962 13.9912 48.9009 13.9961 48.7154 13.9961C48.5201 13.9961 48.3296 13.9912 48.1441 13.9814C47.9683 13.9717 47.7925 13.9424 47.6167 13.8936C47.2749 13.8154 46.9283 13.7715 46.5767 13.7617C46.2251 13.7422 45.8784 13.708 45.5367 13.6592C45.3804 13.6396 45.2144 13.5859 45.0386 13.498C44.8628 13.4004 44.7017 13.2832 44.5552 13.1465C44.4087 13.0098 44.2867 12.8584 44.189 12.6924C44.0913 12.5264 44.0425 12.3604 44.0425 12.1943C44.0425 11.999 44.0376 11.8086 44.0279 11.623C44.0181 11.4375 44.0132 11.2471 44.0132 11.0518C44.0132 10.8857 44.0376 10.6514 44.0865 10.3486C44.1353 10.0459 44.1988 9.71875 44.2769 9.36719C44.3648 9.00586 44.4576 8.62988 44.5552 8.23926C44.6626 7.84863 44.7701 7.47754 44.8775 7.12598C44.9849 6.76465 45.0874 6.4375 45.1851 6.14453C45.2827 5.85156 45.3706 5.62695 45.4488 5.4707C45.5367 5.29492 45.6685 5.13379 45.8443 4.9873C46.0201 4.84082 46.2154 4.71875 46.4302 4.62109C46.6451 4.51367 46.8648 4.43555 47.0894 4.38672C47.3238 4.32812 47.5386 4.29883 47.7339 4.29883C47.9097 4.29883 48.0904 4.32812 48.2759 4.38672C48.4712 4.43555 48.6617 4.48438 48.8472 4.5332C49.9312 4.8457 51.0201 5.11426 52.1138 5.33887C53.2173 5.55371 54.3257 5.76855 55.439 5.9834ZM69.5532 5.26562C69.5239 5.60742 69.4898 5.94922 69.4507 6.29102C69.4214 6.62305 69.4068 6.95996 69.4068 7.30176C69.4068 7.5752 69.4214 7.84863 69.4507 8.12207C69.48 8.38574 69.4946 8.64941 69.4946 8.91309H68.9819C68.4839 8.93262 68.0005 8.91309 67.5318 8.85449C67.063 8.7959 66.5796 8.7666 66.0816 8.7666C65.896 8.7666 65.7056 8.75684 65.5103 8.7373C65.3247 8.70801 65.1441 8.67871 64.9683 8.64941C65.0269 8.94238 65.0708 9.27441 65.1001 9.64551C65.1392 10.0166 65.1636 10.3975 65.1734 10.7881C65.1929 11.1787 65.2027 11.5693 65.2027 11.96C65.2027 12.3408 65.2027 12.6875 65.2027 13C65.2027 13.498 65.2417 13.9814 65.3198 14.4502C65.4077 14.9189 65.4517 15.3975 65.4517 15.8857C65.4517 16.1104 65.4468 16.335 65.437 16.5596C65.4273 16.7744 65.4224 16.9893 65.4224 17.2041C65.4224 17.8975 65.4761 18.5859 65.5835 19.2695C65.7007 19.9434 65.8569 20.6025 66.0523 21.2471C65.7691 21.2471 65.4859 21.2422 65.2027 21.2324C64.9194 21.2227 64.6411 21.2178 64.3677 21.2178C63.7329 21.2178 63.103 21.252 62.478 21.3203C61.853 21.3887 61.2329 21.4473 60.6177 21.4961L60.5884 21.0127C60.5786 20.6025 60.5982 20.2021 60.647 19.8115C60.7056 19.4111 60.7691 19.0156 60.8374 18.625C60.9155 18.2246 60.9888 17.8291 61.0571 17.4385C61.1255 17.0381 61.1694 16.6377 61.189 16.2373C61.2378 15.6025 61.2476 14.9775 61.2183 14.3623C61.1987 13.7471 61.189 13.1318 61.189 12.5166C61.189 12.2041 61.2036 11.8965 61.2329 11.5938C61.2622 11.291 61.2964 10.9932 61.3355 10.7002C61.3843 10.4072 61.4282 10.1094 61.4673 9.80664C61.5161 9.50391 61.5503 9.19629 61.5698 8.88379H61.4234C61.0327 8.85449 60.6421 8.87891 60.2515 8.95703C59.8706 9.03516 59.4946 9.11328 59.1236 9.19141C59.0357 9.25977 58.8648 9.32324 58.6109 9.38184C58.3667 9.44043 58.103 9.49414 57.8198 9.54297C57.5366 9.58203 57.2632 9.61621 56.9995 9.64551C56.7359 9.6748 56.5405 9.69434 56.4136 9.7041C56.4917 9.3916 56.565 9.0791 56.6333 8.7666C56.7114 8.44434 56.7505 8.11719 56.7505 7.78516C56.7505 7.20898 56.731 6.63281 56.6919 6.05664C56.6528 5.48047 56.6333 4.9043 56.6333 4.32812C57.0532 4.46484 57.4683 4.60156 57.8784 4.73828C58.2984 4.875 58.7183 5.00195 59.1382 5.11914C59.5679 5.22656 59.9976 5.31934 60.4273 5.39746C60.8569 5.46582 61.2915 5.5 61.731 5.5H66.8286H68.5132C68.6597 5.5 68.8355 5.47559 69.0405 5.42676C69.2456 5.36816 69.4165 5.31445 69.5532 5.26562ZM75.6694 4.63574C75.6108 5.19238 75.5571 5.74414 75.5083 6.29102C75.4595 6.82812 75.4009 7.375 75.3325 7.93164C74.7759 7.77539 74.2192 7.61914 73.6626 7.46289C73.106 7.29687 72.5249 7.21387 71.9194 7.21387C71.7534 7.21387 71.5825 7.22363 71.4067 7.24316C71.231 7.2627 71.0503 7.28223 70.8647 7.30176L71.0112 4.75293C71.6167 4.7041 72.2319 4.6748 72.8569 4.66504C73.4917 4.64551 74.1167 4.63574 74.7319 4.63574H75.6694ZM75.2739 9.04492C75.147 9.60156 75.0493 10.1582 74.981 10.7148C74.9126 11.2617 74.854 11.8086 74.8052 12.3555C74.7563 12.9023 74.7075 13.4541 74.6587 14.0107C74.6196 14.5576 74.5562 15.1094 74.4683 15.666C74.3901 16.1348 74.3364 16.5938 74.3071 17.043C74.2778 17.4824 74.2632 17.9463 74.2632 18.4346C74.2632 18.8057 74.2876 19.1816 74.3364 19.5625C74.395 19.9336 74.4487 20.3047 74.4976 20.6758C73.8237 20.5586 73.1646 20.5 72.52 20.5C71.8755 20.5 71.2163 20.5098 70.5425 20.5293C70.6304 19.4648 70.7231 18.4004 70.8208 17.3359C70.9282 16.2715 70.9819 15.207 70.9819 14.1426C70.9819 13.7715 70.9624 13.4053 70.9233 13.0439C70.894 12.6729 70.8599 12.3066 70.8208 11.9453C70.7817 11.584 70.7476 11.2227 70.7183 10.8613C70.689 10.4902 70.6792 10.124 70.689 9.7627L70.7183 9.30859C71.2163 9.2207 71.6851 9.17676 72.1245 9.17676C72.5737 9.16699 73.0474 9.16211 73.5454 9.16211C73.8384 9.16211 74.1265 9.15234 74.4097 9.13281C74.7026 9.10352 74.9907 9.07422 75.2739 9.04492ZM90.9995 14.5967C90.9995 14.792 90.9946 15.0117 90.9848 15.2559C90.9848 15.5 90.9702 15.749 90.9409 16.0029C90.9116 16.2471 90.8628 16.4863 90.7944 16.7207C90.726 16.9453 90.6333 17.1357 90.5161 17.292C90.3305 17.5361 90.1059 17.7949 89.8423 18.0684C89.5786 18.332 89.2856 18.5908 88.9633 18.8447C88.6508 19.0986 88.3139 19.3428 87.9526 19.5771C87.601 19.8115 87.2446 20.0166 86.8833 20.1924C86.5219 20.3682 86.1655 20.5049 85.8139 20.6025C85.4624 20.71 85.1303 20.7637 84.8178 20.7637C84.4272 20.7637 83.9829 20.6904 83.4848 20.5439C82.9868 20.3975 82.4839 20.2119 81.976 19.9873C81.478 19.7627 80.9995 19.5234 80.5405 19.2695C80.0815 19.0059 79.6958 18.7568 79.3833 18.5225C78.8852 18.1416 78.4555 17.8047 78.0942 17.5117C77.7329 17.209 77.435 16.8965 77.2007 16.5742C76.9663 16.2422 76.7905 15.8613 76.6733 15.4316C76.5659 15.002 76.5122 14.46 76.5122 13.8057C76.5122 13.4443 76.5171 13.0781 76.5268 12.707C76.5366 12.3359 76.5415 11.9648 76.5415 11.5938C76.5415 10.627 76.6782 9.79199 76.9516 9.08887C77.2251 8.37598 77.6059 7.76074 78.0942 7.24316C78.5923 6.71582 79.188 6.2666 79.8813 5.89551C80.5844 5.51465 81.3608 5.17285 82.2104 4.87012C82.4448 4.78223 82.7036 4.69922 82.9868 4.62109C83.27 4.5332 83.5581 4.45508 83.851 4.38672C84.144 4.31836 84.437 4.26465 84.7299 4.22559C85.0229 4.17676 85.2915 4.15234 85.5356 4.15234C85.6333 4.15234 85.7993 4.18164 86.0337 4.24023C86.2778 4.29883 86.5561 4.37207 86.8686 4.45996C87.1909 4.54785 87.5327 4.64551 87.894 4.75293C88.2553 4.86035 88.602 4.96777 88.9341 5.0752C89.2661 5.17285 89.5688 5.26562 89.8423 5.35352C90.1157 5.43164 90.3208 5.49023 90.4575 5.5293C90.311 6.28125 90.1743 7.03809 90.0473 7.7998C89.9204 8.55176 89.7397 9.29395 89.5053 10.0264C89.437 9.95801 89.2758 9.8457 89.0219 9.68945C88.7778 9.52344 88.4799 9.34277 88.1284 9.14746C87.7866 8.94238 87.4155 8.7373 87.0151 8.53223C86.6245 8.31738 86.2534 8.12207 85.9018 7.94629C85.56 7.76074 85.2573 7.61426 84.9936 7.50684C84.7299 7.38965 84.5591 7.33105 84.4809 7.33105C84.188 7.33105 83.8706 7.38477 83.5288 7.49219C83.1967 7.58984 82.9282 7.73633 82.7231 7.93164C82.4008 8.22461 82.0932 8.4834 81.8003 8.70801C81.5073 8.92285 81.2485 9.15723 81.0239 9.41113C80.7993 9.65527 80.6186 9.93359 80.4819 10.2461C80.3549 10.5586 80.2915 10.959 80.2915 11.4473C80.2915 11.8281 80.3452 12.2334 80.4526 12.6631C80.56 13.083 80.7114 13.5029 80.9067 13.9229C81.1118 14.333 81.351 14.7334 81.6245 15.124C81.8979 15.5049 82.2007 15.8418 82.5327 16.1348C82.8745 16.418 83.2407 16.6475 83.6313 16.8232C84.0219 16.999 84.4272 17.0869 84.8471 17.0869C85.4233 17.0869 85.8872 17.0479 86.2387 16.9697C86.5903 16.8818 86.8735 16.7402 87.0883 16.5449C87.313 16.3398 87.4839 16.0664 87.601 15.7246C87.728 15.373 87.8403 14.9336 87.938 14.4062C87.6059 14.3184 87.2641 14.2305 86.9126 14.1426C86.561 14.0449 86.2143 13.9961 85.8725 13.9961C85.7456 13.9961 85.5698 14.0303 85.3452 14.0986C85.1303 14.167 84.9008 14.25 84.6567 14.3477C84.4126 14.4355 84.1782 14.5283 83.9536 14.626C83.7387 14.7236 83.5678 14.8018 83.4409 14.8604C83.4604 14.5186 83.4751 14.1719 83.4848 13.8203C83.4946 13.459 83.4995 13.0977 83.4995 12.7363C83.4995 12.4629 83.4751 12.1992 83.4262 11.9453C83.3872 11.6816 83.3432 11.4131 83.2944 11.1396H83.6753C84.2514 11.1396 84.8178 11.1592 85.3745 11.1982C85.9311 11.2373 86.4975 11.2568 87.0737 11.2568C87.7182 11.2568 88.3579 11.2324 88.9926 11.1836C89.6372 11.125 90.2768 11.042 90.9116 10.9346V11.5059C90.9116 12.0332 90.9262 12.5508 90.9555 13.0586C90.9848 13.5664 90.9995 14.0791 90.9995 14.5967ZM103.151 20.6465C102.711 20.5977 102.272 20.5488 101.832 20.5C101.403 20.4609 100.958 20.4414 100.499 20.4414C100.08 20.4414 99.6596 20.4561 99.2397 20.4854C98.8295 20.5049 98.4096 20.5391 97.9799 20.5879C97.9213 20.041 97.892 19.5137 97.892 19.0059C97.892 18.791 97.8969 18.5859 97.9067 18.3906C97.9262 18.1855 97.9604 17.9805 98.0092 17.7754C97.5112 17.8242 97.0229 17.873 96.5444 17.9219C96.0659 17.9609 95.5873 18.0391 95.1088 18.1562C95.0209 18.3418 94.9477 18.5225 94.8891 18.6982C94.8403 18.874 94.8012 19.0498 94.7719 19.2256C94.7524 19.4014 94.7377 19.582 94.728 19.7676C94.728 19.9434 94.7231 20.1289 94.7133 20.3242C94.0102 20.3828 93.3071 20.4268 92.6039 20.4561C91.9008 20.4854 91.1928 20.5293 90.4799 20.5879C90.7631 19.875 91.061 19.1719 91.3735 18.4785C91.686 17.7754 91.9887 17.0723 92.2817 16.3691C92.5844 15.666 92.8676 14.958 93.1313 14.2451C93.4047 13.5225 93.6342 12.7852 93.8198 12.0332C94.0151 11.2617 94.2495 10.5098 94.5229 9.77734C94.7963 9.03516 95.0844 8.30273 95.3871 7.58008C95.6996 6.85742 96.017 6.13965 96.3393 5.42676C96.6616 4.7041 96.9692 3.97656 97.2621 3.24414C97.809 4.69922 98.312 6.1543 98.7709 7.60938C99.2397 9.05469 99.645 10.5293 99.9868 12.0332C100.123 12.5898 100.289 13.1367 100.485 13.6738C100.69 14.2012 100.895 14.7383 101.1 15.2852C101.442 16.1738 101.789 17.0625 102.14 17.9512C102.501 18.8301 102.838 19.7285 103.151 20.6465ZM97.6284 14.9189L97.0278 10.5391L95.9438 15.124L97.6284 14.9189ZM114.555 5.26562C114.526 5.60742 114.492 5.94922 114.453 6.29102C114.423 6.62305 114.409 6.95996 114.409 7.30176C114.409 7.5752 114.423 7.84863 114.453 8.12207C114.482 8.38574 114.496 8.64941 114.496 8.91309H113.984C113.486 8.93262 113.002 8.91309 112.534 8.85449C112.065 8.7959 111.581 8.7666 111.083 8.7666C110.898 8.7666 110.707 8.75684 110.512 8.7373C110.327 8.70801 110.146 8.67871 109.97 8.64941C110.029 8.94238 110.073 9.27441 110.102 9.64551C110.141 10.0166 110.165 10.3975 110.175 10.7881C110.195 11.1787 110.204 11.5693 110.204 11.96C110.204 12.3408 110.204 12.6875 110.204 13C110.204 13.498 110.244 13.9814 110.322 14.4502C110.41 14.9189 110.454 15.3975 110.454 15.8857C110.454 16.1104 110.449 16.335 110.439 16.5596C110.429 16.7744 110.424 16.9893 110.424 17.2041C110.424 17.8975 110.478 18.5859 110.585 19.2695C110.703 19.9434 110.859 20.6025 111.054 21.2471C110.771 21.2471 110.488 21.2422 110.204 21.2324C109.921 21.2227 109.643 21.2178 109.37 21.2178C108.735 21.2178 108.105 21.252 107.48 21.3203C106.855 21.3887 106.235 21.4473 105.62 21.4961L105.59 21.0127C105.58 20.6025 105.6 20.2021 105.649 19.8115C105.707 19.4111 105.771 19.0156 105.839 18.625C105.917 18.2246 105.991 17.8291 106.059 17.4385C106.127 17.0381 106.171 16.6377 106.191 16.2373C106.24 15.6025 106.249 14.9775 106.22 14.3623C106.201 13.7471 106.191 13.1318 106.191 12.5166C106.191 12.2041 106.205 11.8965 106.235 11.5938C106.264 11.291 106.298 10.9932 106.337 10.7002C106.386 10.4072 106.43 10.1094 106.469 9.80664C106.518 9.50391 106.552 9.19629 106.572 8.88379H106.425C106.035 8.85449 105.644 8.87891 105.253 8.95703C104.872 9.03516 104.496 9.11328 104.125 9.19141C104.038 9.25977 103.867 9.32324 103.613 9.38184C103.369 9.44043 103.105 9.49414 102.822 9.54297C102.538 9.58203 102.265 9.61621 102.001 9.64551C101.738 9.6748 101.542 9.69434 101.415 9.7041C101.494 9.3916 101.567 9.0791 101.635 8.7666C101.713 8.44434 101.752 8.11719 101.752 7.78516C101.752 7.20898 101.733 6.63281 101.694 6.05664C101.655 5.48047 101.635 4.9043 101.635 4.32812C102.055 4.46484 102.47 4.60156 102.88 4.73828C103.3 4.875 103.72 5.00195 104.14 5.11914C104.57 5.22656 104.999 5.31934 105.429 5.39746C105.859 5.46582 106.293 5.5 106.733 5.5H111.83H113.515C113.662 5.5 113.837 5.47559 114.042 5.42676C114.247 5.36816 114.418 5.31445 114.555 5.26562ZM129.211 12.9414C129.211 13.4102 129.158 13.874 129.05 14.333C128.953 14.792 128.826 15.251 128.669 15.71C128.523 16.1592 128.362 16.6084 128.186 17.0576C128.02 17.4971 127.864 17.9365 127.717 18.376C127.629 18.6299 127.537 18.8594 127.439 19.0645C127.341 19.2695 127.224 19.4551 127.087 19.6211C126.951 19.7773 126.789 19.9238 126.604 20.0605C126.418 20.1875 126.199 20.3047 125.945 20.4121C125.681 20.5195 125.369 20.6074 125.007 20.6758C124.646 20.7539 124.27 20.8174 123.879 20.8662C123.489 20.915 123.103 20.9492 122.722 20.9688C122.351 20.998 122.024 21.0127 121.741 21.0127C121.379 21.0127 121.047 20.9932 120.745 20.9541C120.442 20.915 120.134 20.8125 119.822 20.6465C119.617 20.5391 119.377 20.3877 119.104 20.1924C118.84 19.9971 118.577 19.7871 118.313 19.5625C118.049 19.3281 117.8 19.0938 117.566 18.8594C117.331 18.6152 117.146 18.4004 117.009 18.2148C116.853 18.0195 116.672 17.7949 116.467 17.541C116.262 17.2773 116.057 17.0039 115.852 16.7207C115.657 16.4277 115.481 16.1396 115.325 15.8564C115.178 15.5732 115.076 15.3096 115.017 15.0654C114.9 14.5088 114.778 13.9473 114.651 13.3809C114.534 12.8047 114.475 12.2285 114.475 11.6523C114.475 11.291 114.543 10.915 114.68 10.5244C114.827 10.124 115.007 9.7334 115.222 9.35254C115.437 8.96191 115.671 8.60059 115.925 8.26855C116.189 7.92676 116.438 7.63379 116.672 7.38965C116.936 7.10645 117.209 6.78418 117.493 6.42285C117.786 6.05176 118.093 5.70508 118.415 5.38281C118.747 5.06055 119.099 4.79199 119.47 4.57715C119.841 4.35254 120.237 4.24023 120.657 4.24023C120.969 4.24023 121.345 4.28906 121.785 4.38672C122.234 4.47461 122.693 4.58691 123.162 4.72363C123.63 4.86035 124.079 5.01172 124.509 5.17773C124.949 5.33398 125.315 5.48047 125.608 5.61719C125.784 5.69531 126.013 5.84668 126.296 6.07129C126.579 6.2959 126.863 6.5498 127.146 6.83301C127.429 7.10645 127.693 7.38477 127.937 7.66797C128.181 7.94141 128.357 8.1709 128.464 8.35645C128.533 8.47363 128.596 8.64941 128.655 8.88379C128.723 9.11816 128.787 9.38184 128.845 9.6748C128.904 9.96777 128.953 10.2803 128.992 10.6123C129.04 10.9346 129.079 11.2471 129.109 11.5498C129.138 11.8428 129.162 12.1162 129.182 12.3701C129.202 12.6143 129.211 12.8047 129.211 12.9414ZM125.432 11.8281C125.432 11.4863 125.383 11.0762 125.286 10.5977C125.188 10.1191 125.046 9.65039 124.861 9.19141C124.685 8.72266 124.465 8.29785 124.202 7.91699C123.948 7.52637 123.66 7.25293 123.337 7.09668C123.171 6.99902 122.995 6.93555 122.81 6.90625C122.634 6.86719 122.449 6.84766 122.253 6.84766C121.97 6.84766 121.741 6.87695 121.565 6.93555C121.399 6.98438 121.257 7.0625 121.14 7.16992C121.023 7.26758 120.911 7.38965 120.803 7.53613C120.705 7.68262 120.579 7.85352 120.422 8.04883C120.276 8.24414 120.1 8.50293 119.895 8.8252C119.7 9.1377 119.514 9.47461 119.338 9.83594C119.162 10.1973 119.011 10.5537 118.884 10.9053C118.767 11.2568 118.708 11.5645 118.708 11.8281C118.708 11.9453 118.723 12.1406 118.752 12.4141C118.782 12.6875 118.816 13 118.855 13.3516C118.904 13.6934 118.957 14.0596 119.016 14.4502C119.075 14.8311 119.133 15.1924 119.192 15.5342C119.25 15.8662 119.309 16.1592 119.368 16.4131C119.426 16.667 119.48 16.8379 119.529 16.9258C119.656 17.1699 119.827 17.3604 120.041 17.4971C120.256 17.6338 120.491 17.7363 120.745 17.8047C120.998 17.873 121.262 17.917 121.536 17.9365C121.809 17.9463 122.068 17.9512 122.312 17.9512C122.488 17.9512 122.654 17.917 122.81 17.8486C122.976 17.7705 123.132 17.6729 123.279 17.5557C123.425 17.4385 123.562 17.3115 123.689 17.1748C123.826 17.0381 123.948 16.9062 124.055 16.7793C124.289 16.4961 124.49 16.1494 124.656 15.7393C124.831 15.3193 124.973 14.8799 125.08 14.4209C125.198 13.9619 125.286 13.5078 125.344 13.0586C125.403 12.5996 125.432 12.1895 125.432 11.8281ZM141.392 7.96094C141.392 8.09766 141.377 8.24902 141.348 8.41504C141.319 8.57129 141.285 8.7373 141.245 8.91309C141.216 9.08887 141.182 9.26465 141.143 9.44043C141.114 9.61621 141.094 9.78223 141.084 9.93848C141.075 10.0264 141.06 10.1631 141.04 10.3486C141.021 10.5244 140.996 10.71 140.967 10.9053C140.938 11.0908 140.904 11.2666 140.865 11.4326C140.835 11.5889 140.801 11.7012 140.762 11.7695C140.684 11.8867 140.503 12.0186 140.22 12.165C139.947 12.3115 139.639 12.458 139.297 12.6045C138.965 12.751 138.638 12.8877 138.316 13.0146C138.003 13.1416 137.769 13.249 137.613 13.3369C137.896 13.4248 138.179 13.5225 138.462 13.6299C138.755 13.7275 139.024 13.8545 139.268 14.0107C139.522 14.167 139.742 14.3574 139.927 14.582C140.122 14.7969 140.259 15.0605 140.337 15.373C140.445 15.7441 140.537 16.1543 140.616 16.6035C140.703 17.0527 140.777 17.5117 140.835 17.9805C140.904 18.4395 140.957 18.8984 140.996 19.3574C141.045 19.8066 141.075 20.2266 141.084 20.6172C140.674 20.5586 140.245 20.5293 139.795 20.5293C139.317 20.5293 138.843 20.5684 138.374 20.6465C137.906 20.7246 137.432 20.7881 136.953 20.8369C137.041 20.251 137.139 19.665 137.246 19.0791C137.354 18.4932 137.408 17.8975 137.408 17.292C137.408 16.7744 137.378 16.3594 137.32 16.0469C137.271 15.7246 137.188 15.4756 137.071 15.2998C136.963 15.124 136.822 15.002 136.646 14.9336C136.47 14.8652 136.265 14.8262 136.031 14.8164C135.796 14.7969 135.528 14.792 135.225 14.8018C134.922 14.8018 134.585 14.7822 134.214 14.7432C134.195 14.9189 134.185 15.1045 134.185 15.2998C134.185 15.4951 134.185 15.6904 134.185 15.8857C134.185 16.667 134.244 17.4434 134.361 18.2148C134.478 18.9863 134.58 19.7676 134.668 20.5586C134.219 20.5293 133.77 20.4951 133.321 20.4561C132.871 20.4072 132.422 20.3828 131.973 20.3828C131.729 20.3828 131.485 20.3926 131.241 20.4121C131.006 20.4219 130.772 20.4512 130.537 20.5C130.557 20.0508 130.611 19.6113 130.699 19.1816C130.796 18.7422 130.894 18.3076 130.992 17.8779C131.089 17.4385 131.177 17.0039 131.255 16.5742C131.333 16.1445 131.372 15.7051 131.372 15.2559C131.372 14.6797 131.358 14.1035 131.328 13.5273C131.299 12.9512 131.231 12.3848 131.123 11.8281C131.016 11.2227 130.948 10.6221 130.918 10.0264C130.889 9.43066 130.865 8.83496 130.845 8.23926C130.826 7.63379 130.796 7.0332 130.757 6.4375C130.718 5.83203 130.63 5.23145 130.494 4.63574H132.178C132.95 4.63574 133.706 4.59668 134.449 4.51855C135.191 4.43066 135.943 4.29883 136.704 4.12305C136.783 4.10352 136.861 4.08887 136.939 4.0791C137.027 4.06934 137.11 4.06445 137.188 4.06445C137.305 4.06445 137.456 4.06934 137.642 4.0791C137.837 4.08887 138.033 4.10352 138.228 4.12305C138.423 4.13281 138.609 4.15234 138.785 4.18164C138.96 4.20117 139.097 4.23047 139.195 4.26953C139.429 4.35742 139.673 4.55273 139.927 4.85547C140.191 5.1582 140.43 5.5 140.645 5.88086C140.86 6.26172 141.036 6.64258 141.172 7.02344C141.319 7.4043 141.392 7.7168 141.392 7.96094ZM138.096 9.99707C138.096 9.96777 138.096 9.93359 138.096 9.89453C138.096 9.85547 138.086 9.82129 138.067 9.79199C137.979 9.43066 137.935 9.12793 137.935 8.88379C137.945 8.63965 137.925 8.42969 137.876 8.25391C137.837 8.06836 137.735 7.90234 137.569 7.75586C137.412 7.60938 137.124 7.45801 136.704 7.30176C136.529 7.24316 136.358 7.16016 136.192 7.05273C136.036 6.93555 135.86 6.87695 135.664 6.87695C135.411 6.87695 135.161 6.89648 134.917 6.93555C134.673 6.96484 134.429 7.00391 134.185 7.05273C134.283 7.81445 134.336 8.55176 134.346 9.26465C134.356 9.97754 134.346 10.7148 134.317 11.4766C134.883 11.4375 135.459 11.3594 136.045 11.2422C136.631 11.1152 137.183 10.9297 137.701 10.6855C137.847 10.6074 137.95 10.5146 138.008 10.4072C138.067 10.29 138.096 10.1533 138.096 9.99707Z" fill="white"/>
</svg>
