<svg width="134" height="21" viewBox="0 0 134 21" fill="none" xmlns="http://www.w3.org/2000/svg">
<path d="M12.1729 18.4033C11.8311 18.4229 11.4893 18.4424 11.1475 18.4619C10.8057 18.4717 10.4688 18.4766 10.1367 18.4766C9.83398 18.4766 9.53613 18.457 9.24316 18.418C8.95996 18.3691 8.67676 18.3447 8.39355 18.3447C8.21777 18.3447 8.03711 18.3691 7.85156 18.418C7.67578 18.457 7.49023 18.4863 7.29492 18.5059C7.40234 17.8027 7.5 17.1045 7.58789 16.4111C7.68555 15.708 7.74414 15.0049 7.76367 14.3018C7.7832 13.8037 7.82227 13.3105 7.88086 12.8223C7.93945 12.3242 7.9834 11.8262 8.0127 11.3281C7.44629 11.3867 6.875 11.416 6.29883 11.416C6.12305 11.416 5.9375 11.4111 5.74219 11.4014C5.55664 11.3916 5.37109 11.3867 5.18555 11.3867C4.99023 11.3867 4.7998 11.3867 4.61426 11.3867C4.43848 11.3867 4.2627 11.3965 4.08691 11.416V12.4121C4.08691 13.5645 4.12109 14.7021 4.18945 15.8252C4.25781 16.9385 4.32129 18.0713 4.37988 19.2236C3.98926 19.126 3.60352 19.0723 3.22266 19.0625C2.8418 19.043 2.44629 19.0332 2.03613 19.0332C1.7627 19.0332 1.49414 19.0283 1.23047 19.0186C0.966797 19.0088 0.698242 19.0039 0.424805 19.0039C0.512695 17.9688 0.595703 16.9336 0.673828 15.8984C0.761719 14.8535 0.805664 13.8086 0.805664 12.7637C0.805664 12.5684 0.800781 12.373 0.791016 12.1777C0.78125 11.9727 0.776367 11.7725 0.776367 11.5771C0.776367 11.0889 0.791016 10.6055 0.820312 10.127C0.849609 9.64844 0.864258 9.16016 0.864258 8.66211C0.864258 7.28516 0.800781 5.86914 0.673828 4.41406C0.556641 2.95898 0.429688 1.5332 0.292969 0.136719C0.761719 0.15625 1.25977 0.175781 1.78711 0.195312C2.32422 0.205078 2.82715 0.249023 3.2959 0.327148L4.74609 0.561523C4.66797 1.03027 4.61426 1.49414 4.58496 1.95312C4.55566 2.41211 4.52637 2.87598 4.49707 3.34473C4.43848 4.07715 4.38477 4.80469 4.33594 5.52734C4.28711 6.25 4.2334 6.97266 4.1748 7.69531C4.42871 7.67578 4.6875 7.66113 4.95117 7.65137C5.21484 7.6416 5.47363 7.63672 5.72754 7.63672C5.86426 7.63672 5.99609 7.6416 6.12305 7.65137C6.25977 7.65137 6.38672 7.66602 6.50391 7.69531C6.75781 7.74414 7.01172 7.77344 7.26562 7.7832C7.5293 7.7832 7.78809 7.7832 8.04199 7.7832C8.04199 7.31445 8.05176 6.85547 8.07129 6.40625C8.09082 5.95703 8.10059 5.49805 8.10059 5.0293C8.10059 4.55078 8.09082 4.07227 8.07129 3.59375C8.05176 3.11523 8.04199 2.63184 8.04199 2.14355C8.04199 1.87988 8.02734 1.61621 7.99805 1.35254C7.97852 1.0791 7.94434 0.81543 7.89551 0.561523C8.20801 0.639648 8.50586 0.688477 8.78906 0.708008C9.07227 0.727539 9.375 0.737305 9.69727 0.737305C9.96094 0.737305 10.2295 0.74707 10.5029 0.766602C10.7861 0.786133 11.0645 0.805664 11.3379 0.825195C11.2598 1.52832 11.2061 2.2168 11.1768 2.89062C11.1475 3.56445 11.1328 4.24805 11.1328 4.94141C11.1328 5.21484 11.1328 5.48828 11.1328 5.76172C11.1328 6.02539 11.1426 6.28906 11.1621 6.55273C11.2695 7.90039 11.3574 9.24805 11.4258 10.5957C11.4941 11.9434 11.5967 13.2861 11.7334 14.624L12.1729 18.4033ZM27.4443 12.4414C27.4443 12.9102 27.3906 13.374 27.2832 13.833C27.1855 14.292 27.0586 14.751 26.9023 15.21C26.7558 15.6592 26.5947 16.1084 26.4189 16.5576C26.2529 16.9971 26.0967 17.4365 25.9502 17.876C25.8623 18.1299 25.7695 18.3594 25.6719 18.5645C25.5742 18.7695 25.457 18.9551 25.3203 19.1211C25.1836 19.2773 25.0224 19.4238 24.8369 19.5605C24.6513 19.6875 24.4316 19.8047 24.1777 19.9121C23.914 20.0195 23.6015 20.1074 23.2402 20.1758C22.8789 20.2539 22.5029 20.3174 22.1123 20.3662C21.7217 20.415 21.3359 20.4492 20.9551 20.4688C20.584 20.498 20.2568 20.5127 19.9736 20.5127C19.6123 20.5127 19.2802 20.4932 18.9775 20.4541C18.6748 20.415 18.3672 20.3125 18.0547 20.1465C17.8496 20.0391 17.6103 19.8877 17.3369 19.6924C17.0732 19.4971 16.8095 19.2871 16.5459 19.0625C16.2822 18.8281 16.0332 18.5938 15.7988 18.3594C15.5644 18.1152 15.3789 17.9004 15.2422 17.7148C15.0859 17.5195 14.9052 17.2949 14.7002 17.041C14.4951 16.7773 14.29 16.5039 14.0849 16.2207C13.8896 15.9277 13.7138 15.6396 13.5576 15.3564C13.4111 15.0732 13.3086 14.8096 13.25 14.5654C13.1328 14.0088 13.0107 13.4473 12.8838 12.8809C12.7666 12.3047 12.708 11.7285 12.708 11.1523C12.708 10.791 12.7763 10.415 12.9131 10.0244C13.0595 9.62402 13.2402 9.2334 13.4551 8.85254C13.6699 8.46191 13.9043 8.10059 14.1582 7.76855C14.4219 7.42676 14.6709 7.13379 14.9052 6.88965C15.1689 6.60645 15.4424 6.28418 15.7256 5.92285C16.0185 5.55176 16.3261 5.20508 16.6484 4.88281C16.9804 4.56055 17.332 4.29199 17.7031 4.07715C18.0742 3.85254 18.4697 3.74023 18.8896 3.74023C19.2021 3.74023 19.5781 3.78906 20.0176 3.88672C20.4668 3.97461 20.9258 4.08691 21.3945 4.22363C21.8633 4.36035 22.3125 4.51172 22.7422 4.67773C23.1816 4.83398 23.5478 4.98047 23.8408 5.11719C24.0166 5.19531 24.2461 5.34668 24.5293 5.57129C24.8125 5.7959 25.0957 6.0498 25.3789 6.33301C25.6621 6.60645 25.9258 6.88477 26.1699 7.16797C26.414 7.44141 26.5898 7.6709 26.6972 7.85645C26.7656 7.97363 26.8291 8.14941 26.8877 8.38379C26.956 8.61816 27.0195 8.88184 27.0781 9.1748C27.1367 9.46777 27.1855 9.78027 27.2246 10.1123C27.2734 10.4346 27.3125 10.7471 27.3418 11.0498C27.3711 11.3428 27.3955 11.6162 27.415 11.8701C27.4345 12.1143 27.4443 12.3047 27.4443 12.4414ZM23.665 11.3281C23.665 10.9863 23.6162 10.5762 23.5185 10.0977C23.4209 9.61914 23.2793 9.15039 23.0937 8.69141C22.9179 8.22266 22.6982 7.79785 22.4345 7.41699C22.1806 7.02637 21.8926 6.75293 21.5703 6.59668C21.4043 6.49902 21.2285 6.43555 21.0429 6.40625C20.8672 6.36719 20.6816 6.34766 20.4863 6.34766C20.2031 6.34766 19.9736 6.37695 19.7978 6.43555C19.6318 6.48438 19.4902 6.5625 19.373 6.66992C19.2558 6.76758 19.1435 6.88965 19.0361 7.03613C18.9385 7.18262 18.8115 7.35352 18.6552 7.54883C18.5088 7.74414 18.333 8.00293 18.1279 8.3252C17.9326 8.6377 17.747 8.97461 17.5713 9.33594C17.3955 9.69727 17.2441 10.0537 17.1172 10.4053C17 10.7568 16.9414 11.0645 16.9414 11.3281C16.9414 11.4453 16.956 11.6406 16.9853 11.9141C17.0146 12.1875 17.0488 12.5 17.0879 12.8516C17.1367 13.1934 17.1904 13.5596 17.249 13.9502C17.3076 14.3311 17.3662 14.6924 17.4248 15.0342C17.4834 15.3662 17.542 15.6592 17.6006 15.9131C17.6592 16.167 17.7129 16.3379 17.7617 16.4258C17.8886 16.6699 18.0595 16.8604 18.2744 16.9971C18.4892 17.1338 18.7236 17.2363 18.9775 17.3047C19.2314 17.373 19.4951 17.417 19.7685 17.4365C20.042 17.4463 20.3008 17.4512 20.5449 17.4512C20.7207 17.4512 20.8867 17.417 21.0429 17.3486C21.209 17.2705 21.3652 17.1729 21.5117 17.0557C21.6582 16.9385 21.7949 16.8115 21.9219 16.6748C22.0586 16.5381 22.1806 16.4062 22.2881 16.2793C22.5224 15.9961 22.7226 15.6494 22.8886 15.2393C23.0644 14.8193 23.206 14.3799 23.3135 13.9209C23.4306 13.4619 23.5185 13.0078 23.5771 12.5586C23.6357 12.0996 23.665 11.6895 23.665 11.3281ZM44.2539 4.25293C44.1269 4.43848 44.0097 4.69238 43.9023 5.01465C43.7949 5.32715 43.6972 5.67871 43.6093 6.06934C43.5214 6.4502 43.4335 6.86035 43.3457 7.2998C43.2675 7.72949 43.1845 8.1543 43.0966 8.57422C43.0185 8.99414 42.9355 9.39453 42.8476 9.77539C42.7597 10.1562 42.6621 10.4932 42.5546 10.7861C42.3691 11.3135 42.1884 11.8359 42.0126 12.3535C41.8466 12.8711 41.7246 13.4082 41.6464 13.9648C41.5976 14.4043 41.5195 14.8242 41.4121 15.2246C41.3144 15.6152 41.2021 16.0156 41.0751 16.4258C40.8798 17.041 40.7285 17.6611 40.621 18.2861C40.5234 18.9111 40.4453 19.541 40.3867 20.1758C39.7421 20.1953 39.0927 20.2002 38.4384 20.1904C37.7841 20.1807 37.125 20.1855 36.4609 20.2051V19.707C36.4804 19.1504 36.4658 18.5986 36.4169 18.0518C36.3779 17.5049 36.3193 16.9531 36.2412 16.3965C36.1533 15.7227 36.08 15.0488 36.0214 14.375C35.9726 13.7012 35.9482 13.0176 35.9482 12.3242C35.9482 11.9629 35.8994 11.6064 35.8017 11.2549C35.7138 10.9033 35.6308 10.5469 35.5527 10.1855C35.4453 10.5957 35.3476 11.001 35.2597 11.4014C35.1718 11.8018 35.1132 12.207 35.0839 12.6172C35.0351 12.9883 34.9863 13.3643 34.9375 13.7451C34.8886 14.1162 34.7959 14.4727 34.6591 14.8145C34.3466 15.625 34.1123 16.4404 33.956 17.2607C33.7998 18.0811 33.6533 18.916 33.5166 19.7656C33.3408 19.7363 33.1601 19.7021 32.9746 19.6631C32.7988 19.624 32.6181 19.6045 32.4326 19.6045C32.2373 19.6045 32.0419 19.6143 31.8466 19.6338C31.6611 19.6533 31.4707 19.6631 31.2753 19.6631C31.1093 19.6631 30.9628 19.6533 30.8359 19.6338C30.7089 19.6045 30.5869 19.5703 30.4697 19.5312C30.3623 19.4922 30.25 19.4482 30.1328 19.3994C30.0156 19.3506 29.8837 19.3018 29.7373 19.2529C29.6884 17.8174 29.6103 16.4014 29.5029 15.0049C29.4052 13.5986 29.2734 12.1826 29.1074 10.7568C29.0683 10.376 29.0048 10 28.9169 9.62891C28.8291 9.25781 28.7363 8.8916 28.6386 8.53027C28.5507 8.15918 28.4677 7.78809 28.3896 7.41699C28.3115 7.0459 28.2529 6.66992 28.2138 6.28906C28.165 5.87891 28.0917 5.4834 27.9941 5.10254C27.8964 4.71191 27.789 4.32617 27.6718 3.94531C28.0136 3.96484 28.3554 3.99414 28.6972 4.0332C29.0488 4.0625 29.3955 4.07715 29.7373 4.07715C29.9619 4.07715 30.1718 4.04785 30.3671 3.98926C30.5722 3.9209 30.7822 3.88672 30.997 3.88672H32.2275C32.247 4.19922 32.2617 4.52148 32.2714 4.85352C32.2812 5.17578 32.2861 5.49316 32.2861 5.80566C32.2861 6.46973 32.2666 7.13379 32.2275 7.79785C32.1884 8.45215 32.1689 9.10156 32.1689 9.74609C32.1689 10.2441 32.1884 10.7324 32.2275 11.2109C32.2763 11.6895 32.3251 12.168 32.374 12.6465C32.5205 12.0117 32.6914 11.3867 32.8867 10.7715C33.082 10.1562 33.2773 9.54102 33.4726 8.92578C33.6777 8.31055 33.8779 7.69531 34.0732 7.08008C34.2685 6.45508 34.4443 5.83008 34.6005 5.20508H36.8125C37.0957 5.20508 37.374 5.22461 37.6474 5.26367C37.9306 5.29297 38.2138 5.32715 38.497 5.36621C38.4189 5.64941 38.3554 5.93262 38.3066 6.21582C38.2578 6.49902 38.2334 6.79199 38.2334 7.09473C38.2334 7.52441 38.2773 7.93945 38.3652 8.33984C38.4628 8.73047 38.5556 9.13574 38.6435 9.55566C38.7119 9.86816 38.7656 10.1855 38.8046 10.5078C38.8535 10.8301 38.8974 11.1523 38.9365 11.4746C38.9853 11.7969 39.039 12.1191 39.0976 12.4414C39.1562 12.7637 39.2343 13.0811 39.332 13.3936C39.6347 11.8115 39.8886 10.2295 40.0937 8.64746C40.3085 7.06543 40.4257 5.46875 40.4453 3.85742C41.08 3.96484 41.7148 4.0332 42.3496 4.0625C42.9843 4.08203 43.6191 4.14551 44.2539 4.25293ZM65.3485 4.76562C65.3192 5.10742 65.2851 5.44922 65.246 5.79102C65.2167 6.12305 65.2021 6.45996 65.2021 6.80176C65.2021 7.0752 65.2167 7.34863 65.246 7.62207C65.2753 7.88574 65.2899 8.14941 65.2899 8.41309H64.7772C64.2792 8.43262 63.7958 8.41309 63.3271 8.35449C62.8583 8.2959 62.3749 8.2666 61.8769 8.2666C61.6913 8.2666 61.5009 8.25684 61.3056 8.2373C61.12 8.20801 60.9394 8.17871 60.7636 8.14941C60.8222 8.44238 60.8661 8.77441 60.8954 9.14551C60.9345 9.5166 60.9589 9.89746 60.9687 10.2881C60.9882 10.6787 60.998 11.0693 60.998 11.46C60.998 11.8408 60.998 12.1875 60.998 12.5C60.998 12.998 61.037 13.4814 61.1151 13.9502C61.203 14.4189 61.247 14.8975 61.247 15.3857C61.247 15.6104 61.2421 15.835 61.2323 16.0596C61.2226 16.2744 61.2177 16.4893 61.2177 16.7041C61.2177 17.3975 61.2714 18.0859 61.3788 18.7695C61.496 19.4434 61.6522 20.1025 61.8476 20.7471C61.5644 20.7471 61.2812 20.7422 60.998 20.7324C60.7147 20.7227 60.4364 20.7178 60.163 20.7178C59.5282 20.7178 58.8983 20.752 58.2733 20.8203C57.6483 20.8887 57.0282 20.9473 56.413 20.9961L56.3837 20.5127C56.3739 20.1025 56.3935 19.7021 56.4423 19.3115C56.5009 18.9111 56.5644 18.5156 56.6327 18.125C56.7108 17.7246 56.7841 17.3291 56.8524 16.9385C56.9208 16.5381 56.9647 16.1377 56.9843 15.7373C57.0331 15.1025 57.0429 14.4775 57.0136 13.8623C56.994 13.2471 56.9843 12.6318 56.9843 12.0166C56.9843 11.7041 56.9989 11.3965 57.0282 11.0938C57.0575 10.791 57.0917 10.4932 57.1308 10.2002C57.1796 9.90723 57.2235 9.60938 57.2626 9.30664C57.3114 9.00391 57.3456 8.69629 57.3651 8.38379H57.2187C56.828 8.35449 56.4374 8.37891 56.0468 8.45703C55.6659 8.53516 55.2899 8.61328 54.9188 8.69141C54.831 8.75977 54.6601 8.82324 54.4062 8.88184C54.162 8.94043 53.8983 8.99414 53.6151 9.04297C53.3319 9.08203 53.0585 9.11621 52.7948 9.14551C52.5312 9.1748 52.3358 9.19434 52.2089 9.2041C52.287 8.8916 52.3603 8.5791 52.4286 8.2666C52.5067 7.94434 52.5458 7.61719 52.5458 7.28516C52.5458 6.70898 52.5263 6.13281 52.4872 5.55664C52.4481 4.98047 52.4286 4.4043 52.4286 3.82812C52.8485 3.96484 53.2636 4.10156 53.6737 4.23828C54.0937 4.375 54.5136 4.50195 54.9335 4.61914C55.3632 4.72656 55.7929 4.81934 56.2226 4.89746C56.6522 4.96582 57.0868 5 57.5263 5H62.6239H64.3085C64.455 5 64.6308 4.97559 64.8358 4.92676C65.0409 4.86816 65.2118 4.81445 65.3485 4.76562ZM80.0048 12.4414C80.0048 12.9102 79.9511 13.374 79.8436 13.833C79.746 14.292 79.619 14.751 79.4628 15.21C79.3163 15.6592 79.1552 16.1084 78.9794 16.5576C78.8134 16.9971 78.6571 17.4365 78.5106 17.876C78.4227 18.1299 78.33 18.3594 78.2323 18.5645C78.1347 18.7695 78.0175 18.9551 77.8807 19.1211C77.744 19.2773 77.5829 19.4238 77.3973 19.5605C77.2118 19.6875 76.9921 19.8047 76.7382 19.9121C76.4745 20.0195 76.162 20.1074 75.8007 20.1758C75.4393 20.2539 75.0634 20.3174 74.6727 20.3662C74.2821 20.415 73.8964 20.4492 73.5155 20.4688C73.1444 20.498 72.8173 20.5127 72.5341 20.5127C72.1727 20.5127 71.8407 20.4932 71.538 20.4541C71.2352 20.415 70.9276 20.3125 70.6151 20.1465C70.41 20.0391 70.1708 19.8877 69.8973 19.6924C69.6337 19.4971 69.37 19.2871 69.1063 19.0625C68.8427 18.8281 68.5936 18.5938 68.3593 18.3594C68.1249 18.1152 67.9393 17.9004 67.8026 17.7148C67.6464 17.5195 67.4657 17.2949 67.2606 17.041C67.0555 16.7773 66.8505 16.5039 66.6454 16.2207C66.4501 15.9277 66.2743 15.6396 66.118 15.3564C65.9716 15.0732 65.869 14.8096 65.8104 14.5654C65.6932 14.0088 65.5712 13.4473 65.4442 12.8809C65.327 12.3047 65.2684 11.7285 65.2684 11.1523C65.2684 10.791 65.3368 10.415 65.4735 10.0244C65.62 9.62402 65.8007 9.2334 66.0155 8.85254C66.2304 8.46191 66.4647 8.10059 66.7186 7.76855C66.9823 7.42676 67.2313 7.13379 67.4657 6.88965C67.7294 6.60645 68.0028 6.28418 68.286 5.92285C68.579 5.55176 68.8866 5.20508 69.2089 4.88281C69.5409 4.56055 69.8925 4.29199 70.2636 4.07715C70.6347 3.85254 71.0302 3.74023 71.4501 3.74023C71.7626 3.74023 72.1386 3.78906 72.578 3.88672C73.0272 3.97461 73.4862 4.08691 73.955 4.22363C74.4237 4.36035 74.8729 4.51172 75.3026 4.67773C75.7421 4.83398 76.1083 4.98047 76.4013 5.11719C76.577 5.19531 76.8065 5.34668 77.0897 5.57129C77.3729 5.7959 77.6561 6.0498 77.9393 6.33301C78.2225 6.60645 78.4862 6.88477 78.7304 7.16797C78.9745 7.44141 79.1503 7.6709 79.2577 7.85645C79.3261 7.97363 79.3895 8.14941 79.4481 8.38379C79.5165 8.61816 79.58 8.88184 79.6386 9.1748C79.6972 9.46777 79.746 9.78027 79.785 10.1123C79.8339 10.4346 79.8729 10.7471 79.9022 11.0498C79.9315 11.3428 79.9559 11.6162 79.9755 11.8701C79.995 12.1143 80.0048 12.3047 80.0048 12.4414ZM76.2255 11.3281C76.2255 10.9863 76.1766 10.5762 76.079 10.0977C75.9813 9.61914 75.8397 9.15039 75.6542 8.69141C75.4784 8.22266 75.2587 7.79785 74.995 7.41699C74.7411 7.02637 74.453 6.75293 74.1307 6.59668C73.9647 6.49902 73.7889 6.43555 73.6034 6.40625C73.4276 6.36719 73.2421 6.34766 73.0468 6.34766C72.7636 6.34766 72.5341 6.37695 72.3583 6.43555C72.1923 6.48438 72.0507 6.5625 71.9335 6.66992C71.8163 6.76758 71.704 6.88965 71.5966 7.03613C71.4989 7.18262 71.372 7.35352 71.2157 7.54883C71.0692 7.74414 70.8934 8.00293 70.6884 8.3252C70.493 8.6377 70.3075 8.97461 70.1317 9.33594C69.9559 9.69727 69.8046 10.0537 69.6776 10.4053C69.5604 10.7568 69.5018 11.0645 69.5018 11.3281C69.5018 11.4453 69.5165 11.6406 69.5458 11.9141C69.5751 12.1875 69.6093 12.5 69.6483 12.8516C69.6972 13.1934 69.7509 13.5596 69.8095 13.9502C69.868 14.3311 69.9266 14.6924 69.9852 15.0342C70.0438 15.3662 70.1024 15.6592 70.161 15.9131C70.2196 16.167 70.2733 16.3379 70.3222 16.4258C70.4491 16.6699 70.62 16.8604 70.8348 16.9971C71.0497 17.1338 71.2841 17.2363 71.538 17.3047C71.7919 17.373 72.0555 17.417 72.329 17.4365C72.6024 17.4463 72.8612 17.4512 73.1054 17.4512C73.2811 17.4512 73.4472 17.417 73.6034 17.3486C73.7694 17.2705 73.9257 17.1729 74.0722 17.0557C74.2186 16.9385 74.3554 16.8115 74.4823 16.6748C74.619 16.5381 74.7411 16.4062 74.8485 16.2793C75.0829 15.9961 75.2831 15.6494 75.4491 15.2393C75.6249 14.8193 75.7665 14.3799 75.8739 13.9209C75.9911 13.4619 76.079 13.0078 76.1376 12.5586C76.1962 12.0996 76.2255 11.6895 76.2255 11.3281ZM100.484 6.02539C100.484 6.39648 100.465 6.75293 100.426 7.09473C100.396 7.43652 100.318 7.75391 100.191 8.04688C100.074 8.33984 99.8983 8.60352 99.6639 8.83789C99.4295 9.07227 99.1121 9.2627 98.7118 9.40918C98.3602 9.5459 98.0184 9.7168 97.6864 9.92188C97.3543 10.127 97.0223 10.332 96.6903 10.5371C96.368 10.7422 96.036 10.9229 95.6942 11.0791C95.3621 11.2354 95.0106 11.3379 94.6395 11.3867C94.3368 11.4355 94.0291 11.4746 93.7166 11.5039C93.4139 11.5234 93.1112 11.5674 92.8084 11.6357C92.8084 12.1631 92.8182 12.7148 92.8377 13.291C92.8573 13.8574 92.9256 14.4043 93.0428 14.9316C93.1307 15.3027 93.1795 15.6982 93.1893 16.1182C93.2088 16.5283 93.2186 16.9238 93.2186 17.3047C93.2186 17.5 93.2186 17.6904 93.2186 17.876C93.2186 18.0615 93.2088 18.252 93.1893 18.4473H92.8084C92.1737 18.4277 91.5487 18.4619 90.9334 18.5498C90.3182 18.6279 89.6932 18.6914 89.0584 18.7402C89.1366 17.9785 89.2049 17.2168 89.2635 16.4551C89.3221 15.6836 89.3514 14.9072 89.3514 14.126C89.3514 14.0479 89.3514 13.9746 89.3514 13.9062C89.3514 13.8281 89.3416 13.75 89.3221 13.6719C89.244 12.7051 89.2098 11.7383 89.2196 10.7715C89.2293 9.79492 89.2342 8.82324 89.2342 7.85645C89.2342 6.64551 89.2049 5.43945 89.1463 4.23828C89.0877 3.03711 89.0487 1.83105 89.0291 0.620117C89.3123 0.649414 89.5955 0.683594 89.8787 0.722656C90.1619 0.751953 90.4452 0.766602 90.7284 0.766602C91.2459 0.766602 91.7635 0.786133 92.2811 0.825195C92.7987 0.864258 93.3114 0.883789 93.8192 0.883789C94.1512 0.883789 94.4735 0.869141 94.786 0.839844C95.1082 0.810547 95.4403 0.795898 95.7821 0.795898C95.8993 0.795898 96.0164 0.800781 96.1336 0.810547C96.2508 0.810547 96.3729 0.825195 96.4998 0.854492C96.6561 0.90332 96.8368 0.961914 97.0418 1.03027C97.2469 1.09863 97.4471 1.17676 97.6424 1.26465C97.8475 1.35254 98.0379 1.45508 98.2137 1.57227C98.3895 1.67969 98.5262 1.80176 98.6239 1.93848C98.7703 2.14355 98.9119 2.36816 99.0487 2.6123C99.1952 2.85645 99.3368 3.11035 99.4735 3.37402C99.62 3.62793 99.7616 3.88672 99.8983 4.15039C100.035 4.4043 100.172 4.64844 100.308 4.88281C100.396 5.01953 100.445 5.20508 100.455 5.43945C100.474 5.66406 100.484 5.85937 100.484 6.02539ZM96.368 6.65527C96.368 6.62598 96.368 6.5918 96.368 6.55273C96.368 6.50391 96.3582 6.45508 96.3387 6.40625C96.2215 6.06445 96.1385 5.70801 96.0897 5.33691C96.0506 4.95605 95.9871 4.59473 95.8993 4.25293C95.8407 4.00879 95.7332 3.84277 95.577 3.75488C95.4305 3.66699 95.245 3.62305 95.0203 3.62305C94.6297 3.62305 94.2342 3.63281 93.8338 3.65234C93.4432 3.67187 93.0526 3.68164 92.6619 3.68164C92.7498 5.36133 92.7791 7.05078 92.7498 8.75C92.9744 8.73047 93.2039 8.7207 93.4383 8.7207C93.6727 8.7207 93.9022 8.71094 94.1268 8.69141C94.2049 8.68164 94.3368 8.64746 94.5223 8.58887C94.7078 8.53027 94.908 8.46191 95.1229 8.38379C95.3377 8.2959 95.533 8.21777 95.7088 8.14941C95.8944 8.07129 96.0164 8.0127 96.075 7.97363C96.1239 7.94434 96.1629 7.87109 96.1922 7.75391C96.2313 7.62695 96.2606 7.49023 96.2801 7.34375C96.3094 7.19727 96.3289 7.06055 96.3387 6.93359C96.3582 6.79687 96.368 6.7041 96.368 6.65527ZM110.072 16.0449C110.013 16.6797 109.96 17.3096 109.911 17.9346C109.872 18.5596 109.813 19.1895 109.735 19.8242C109.54 19.9023 109.32 19.9512 109.076 19.9707C108.842 19.9902 108.612 20 108.388 20C108.134 20 107.88 19.9902 107.626 19.9707C107.372 19.9512 107.118 19.9414 106.864 19.9414C106.063 19.9414 105.263 19.9561 104.462 19.9854C103.661 20.0146 102.86 20.0391 102.059 20.0586C102.138 19.7168 102.211 19.3652 102.279 19.0039C102.357 18.6426 102.396 18.2764 102.396 17.9053C102.396 17.0068 102.377 16.167 102.338 15.3857C102.308 14.6045 102.264 13.8379 102.206 13.0859C102.157 12.3242 102.103 11.5527 102.045 10.7715C101.996 9.99023 101.952 9.14551 101.913 8.2373C101.884 7.53418 101.82 6.79199 101.722 6.01074C101.625 5.21973 101.537 4.47266 101.459 3.76953C101.898 3.69141 102.323 3.64746 102.733 3.6377C103.143 3.62793 103.568 3.62305 104.008 3.62305C104.711 3.62305 105.404 3.59375 106.088 3.53516C106.039 4.58984 106.01 5.6543 106 6.72852C106 7.80273 105.936 8.86719 105.809 9.92188C105.741 10.5762 105.692 11.1719 105.663 11.709C105.643 12.2363 105.634 12.7539 105.634 13.2617C105.643 13.7598 105.658 14.2725 105.678 14.7998C105.697 15.3271 105.712 15.9229 105.721 16.5869C106.444 16.4795 107.167 16.3916 107.889 16.3232C108.622 16.2549 109.349 16.1621 110.072 16.0449ZM122.956 20.1465C122.516 20.0977 122.077 20.0488 121.637 20C121.208 19.9609 120.763 19.9414 120.304 19.9414C119.885 19.9414 119.465 19.9561 119.045 19.9854C118.635 20.0049 118.215 20.0391 117.785 20.0879C117.726 19.541 117.697 19.0137 117.697 18.5059C117.697 18.291 117.702 18.0859 117.712 17.8906C117.731 17.6855 117.765 17.4805 117.814 17.2754C117.316 17.3242 116.828 17.373 116.349 17.4219C115.871 17.4609 115.392 17.5391 114.914 17.6562C114.826 17.8418 114.753 18.0225 114.694 18.1982C114.645 18.374 114.606 18.5498 114.577 18.7256C114.557 18.9014 114.543 19.082 114.533 19.2676C114.533 19.4434 114.528 19.6289 114.518 19.8242C113.815 19.8828 113.112 19.9268 112.409 19.9561C111.706 19.9854 110.998 20.0293 110.285 20.0879C110.568 19.375 110.866 18.6719 111.178 17.9785C111.491 17.2754 111.794 16.5723 112.087 15.8691C112.389 15.166 112.673 14.458 112.936 13.7451C113.21 13.0225 113.439 12.2852 113.625 11.5332C113.82 10.7617 114.054 10.0098 114.328 9.27734C114.601 8.53516 114.889 7.80273 115.192 7.08008C115.505 6.35742 115.822 5.63965 116.144 4.92676C116.467 4.2041 116.774 3.47656 117.067 2.74414C117.614 4.19922 118.117 5.6543 118.576 7.10938C119.045 8.55469 119.45 10.0293 119.792 11.5332C119.928 12.0898 120.095 12.6367 120.29 13.1738C120.495 13.7012 120.7 14.2383 120.905 14.7852C121.247 15.6738 121.594 16.5625 121.945 17.4512C122.306 18.3301 122.643 19.2285 122.956 20.1465ZM117.433 14.4189L116.833 10.0391L115.749 14.624L117.433 14.4189ZM133.056 4.5752C132.91 4.8877 132.763 5.20508 132.617 5.52734C132.48 5.83984 132.329 6.15234 132.163 6.46484C132.075 6.64062 131.963 6.82617 131.826 7.02148C131.689 7.2168 131.552 7.41699 131.416 7.62207C131.279 7.81738 131.152 8.0127 131.035 8.20801C130.918 8.40332 130.835 8.58398 130.786 8.75C130.678 9.11133 130.512 9.53125 130.288 10.0098C130.073 10.4785 129.834 10.9619 129.57 11.46C129.316 11.9482 129.052 12.4219 128.779 12.8809C128.515 13.3398 128.281 13.7451 128.076 14.0967C128.017 14.7119 127.973 15.3223 127.944 15.9277C127.915 16.5234 127.9 17.1387 127.9 17.7734C127.9 18.1836 127.92 18.5889 127.959 18.9893C128.008 19.3896 128.056 19.7949 128.105 20.2051C127.695 20.2246 127.329 20.2393 127.007 20.249C126.694 20.2686 126.386 20.2832 126.084 20.293C125.781 20.3027 125.469 20.3125 125.146 20.3223C124.834 20.332 124.472 20.3467 124.062 20.3662C124.121 19.9365 124.175 19.5166 124.223 19.1064C124.272 18.6865 124.297 18.2666 124.297 17.8467C124.297 17.4463 124.316 17.0508 124.355 16.6602C124.404 16.2598 124.453 15.8643 124.502 15.4736C124.56 15.083 124.609 14.6924 124.648 14.3018C124.697 13.9014 124.721 13.501 124.721 13.1006C124.721 12.9541 124.682 12.7539 124.604 12.5C124.536 12.2461 124.448 11.9873 124.341 11.7236C124.233 11.4502 124.121 11.1963 124.004 10.9619C123.886 10.7178 123.784 10.5322 123.696 10.4053C123.393 9.92676 123.139 9.42383 122.934 8.89648C122.729 8.36914 122.544 7.83203 122.378 7.28516C122.221 6.73828 122.08 6.19141 121.953 5.64453C121.826 5.08789 121.689 4.54102 121.543 4.00391C121.826 3.95508 122.114 3.91113 122.407 3.87207C122.71 3.82324 123.003 3.79883 123.286 3.79883C123.598 3.79883 123.857 3.80371 124.062 3.81348C124.267 3.81348 124.463 3.81836 124.648 3.82812C124.844 3.83789 125.044 3.84766 125.249 3.85742C125.454 3.86719 125.708 3.87695 126.011 3.88672C125.874 4.62891 125.771 5.37109 125.703 6.11328C125.644 6.85547 125.615 7.60254 125.615 8.35449C125.615 8.54004 125.644 8.72559 125.703 8.91113C125.761 9.08691 125.83 9.2627 125.908 9.43848C125.986 9.60449 126.064 9.77539 126.142 9.95117C126.23 10.1172 126.294 10.2881 126.333 10.4639C126.382 10.6104 126.421 10.7666 126.45 10.9326C126.489 11.0889 126.523 11.25 126.552 11.416C127.06 10.2637 127.49 9.08203 127.842 7.87109C128.203 6.66016 128.554 5.44434 128.896 4.22363C129.131 4.25293 129.365 4.28223 129.599 4.31152C129.844 4.33105 130.088 4.34082 130.332 4.34082C130.556 4.34082 130.786 4.33105 131.02 4.31152C131.255 4.29199 131.494 4.28223 131.738 4.28223C131.963 4.28223 132.187 4.31641 132.412 4.38477C132.636 4.45313 132.851 4.5166 133.056 4.5752Z" fill="#EEE0FF"/>
</svg>
